<?xml version="1.0" encoding="UTF-8" standalone="no"?>
<svg width="250px" height="250px" viewBox="0 0 250 250" version="1.1" xmlns="http://www.w3.org/2000/svg" xmlns:xlink="http://www.w3.org/1999/xlink" style="background: #FFFFFF;">
    <!-- Generator: Sketch 3.8.3 (29802) - http://www.bohemiancoding.com/sketch -->
    <title>KiaBot</title>
    <desc>Created with Sketch.</desc>
    <defs></defs>
    <g id="Page-1" stroke="none" stroke-width="1" fill="none" fill-rule="evenodd">
        <g id="KiaBot">
            <g id="Page-1-+-Path-Mask" transform="translate(22.000000, 23.000000)">
                <path d="M50.1554698,110.54935 C50.1554698,127.3425 63.1903543,128.440739 63.1903543,128.440739 C67.7266709,129.886323 77.3127423,129.168899 81.6501254,128.440739 C85.6420587,127.761208 100.289884,126.484875 102.622143,126.2771 C102.711189,126.285942 102.852022,126.301099 102.970119,126.306151 C103.0939,126.300467 103.232837,126.285942 103.314937,126.2771 C105.649722,126.481718 120.292495,127.761208 124.288849,128.440739 C128.633811,129.168899 138.212935,129.886323 142.751778,128.440739 C142.751778,128.440739 155.782242,127.345658 155.782242,110.54935 C155.782242,110.54935 155.782242,91.927906 142.751778,80.6095339 C130.112866,69.6321907 111.116922,67.2506718 103.662281,67.109208 L103.662281,67.0972088 C103.556183,67.0972088 103.426719,67.1060503 103.314306,67.1060503 C103.205681,67.1060503 103.069901,67.0972088 102.969487,67.0972088 C102.863389,67.0972088 102.730767,67.1060503 102.621512,67.1060503 C102.510993,67.1060503 102.37837,67.0972088 102.27543,67.0972088 L102.27543,67.109208 C94.8283683,67.2506718 75.8267402,69.6321907 63.1897228,80.6095339 C50.1554698,91.927906 50.1554698,110.54935 50.1554698,110.54935 M155.619937,163.131594 C155.619937,159.642363 152.814027,156.806139 149.347531,156.806139 C145.875351,156.806139 143.070072,159.638574 143.070072,163.131594 C143.070072,166.627141 145.875351,169.462734 149.347531,169.462734 C152.814027,169.462734 155.619937,166.627141 155.619937,163.131594 M140.169431,163.131594 C140.169431,159.642363 137.363521,156.806139 133.897024,156.806139 C130.430528,156.806139 127.619565,159.638574 127.619565,163.131594 C127.619565,166.627141 130.43116,169.462734 133.897024,169.462734 C137.362889,169.462734 140.169431,166.627141 140.169431,163.131594 M124.72524,163.131594 C124.72524,159.642363 121.91933,156.806139 118.452833,156.806139 C114.980653,156.806139 112.174743,159.638574 112.174743,163.131594 C112.174743,166.627141 114.980653,169.462734 118.452833,169.462734 C121.91933,169.462734 124.72524,166.627141 124.72524,163.131594 M0.355769231,231.871664 C0.355769231,226.654553 3.39155847,222.186442 7.75988678,220.064484 L7.75988678,164.175522 C7.75988678,153.152077 16.2704538,144.150807 27.0299174,143.437172 L27.0299174,116.391681 C27.0299174,116.391681 29.6476304,67.1003665 70.3115441,51.7679572 C82.3902845,47.2158522 93.4181505,45.3749274 102.973277,45.0288462 C112.53535,45.3749274 123.563847,47.2158522 135.630588,51.7654311 C176.30208,67.0978403 178.922951,116.389155 178.922951,116.389155 L178.922951,143.43212 C189.674836,144.148281 198.187298,153.152708 198.187298,164.172996 L198.187298,220.065115 C202.554995,222.187073 205.591415,226.658342 205.591415,231.872296 C205.591415,239.128634 199.7554,245.012015 192.557794,245.012015 C185.360188,245.012015 179.524173,239.129265 179.524173,231.872296 C179.524173,226.655184 182.563119,222.187073 186.921975,220.065115 L186.921975,182.703499 C184.499406,183.953307 181.781279,184.707991 178.925477,184.902504 L178.925477,197.888129 C178.999367,198.93774 179.084624,199.97851 179.084624,201.054014 C179.084624,202.19204 179.011366,203.317436 178.925477,204.443463 L178.925477,204.744074 L178.911583,204.744074 C177.175493,226.378572 160.389922,243.709158 139.114767,246.072994 L139.13245,246.367921 L102.973277,246.367921 L66.809682,246.367921 L66.8336803,246.072994 C45.5591573,243.709158 28.7780065,226.37794 27.0419165,204.744074 L27.0299174,204.744074 L27.0299174,204.443463 C26.9490809,203.317436 26.8707705,202.19204 26.8707705,201.054014 C26.8707705,199.981036 26.951607,198.93774 27.0299174,197.888129 L27.0299174,184.904398 C24.1633795,184.707359 21.445884,183.958359 19.0233153,182.702867 L19.0233153,220.070799 C23.389749,222.192757 26.4274329,226.661499 26.4274329,231.872296 C26.4274329,239.134949 20.5926801,245.015173 13.3906538,245.015173 C6.19557433,245.01391 0.355769231,239.134318 0.355769231,231.871664 M102.279219,271.921094 C116.991461,271.921094 129.497119,262.484065 134.245,249.284981 L70.3109126,249.284981 C75.0606881,262.483434 87.562557,271.921094 102.279219,271.921094 M68.6234508,118.57995 C74.016129,118.57995 78.3926673,114.164888 78.3926673,108.719161 C78.3926673,103.275329 74.0154975,98.8627929 68.6234508,98.8627929 C63.2181418,98.8627929 58.8441297,103.275329 58.8441297,108.719161 C58.8441297,114.164888 63.2181418,118.57995 68.6234508,118.57995 M126.18156,108.723582 C126.18156,103.277855 130.555572,98.8659506 135.960881,98.8659506 C141.351665,98.8659506 145.728835,103.277855 145.728835,108.723582 C145.728835,114.167415 141.351665,118.582477 135.960881,118.582477 C130.554941,118.57995 126.18156,114.164888 126.18156,108.723582" id="Page-1" fill="#363535"></path>
                <path d="M96.5379379,24.7791884 L96.4571014,24.7791884 L96.4571014,38.2915134 L108.859819,38.2915134 L108.859819,25.1745293 C113.127734,23.0108901 116.086475,18.6078273 116.086475,13.4614478 C116.086475,6.20005718 110.256143,0.317307692 103.054749,0.317307692 C95.85588,0.317307692 90.0192326,6.20005718 90.0192326,13.4614478 C90.0167064,18.3198473 92.6546286,22.5069251 96.5379379,24.7791884" id="Path" fill="#BB162B"></path>
            </g>
        </g>
    </g>
</svg>