<?xml version="1.0" standalone="no"?>
<!DOCTYPE svg PUBLIC "-//W3C//DTD SVG 1.1//EN" "http://www.w3.org/Graphics/SVG/1.1/DTD/svg11.dtd" >
<svg xmlns="http://www.w3.org/2000/svg">
<metadata></metadata>
<defs>
<font id="coffeetininitials" horiz-adv-x="942" >
<font-face units-per-em="2048" ascent="1638" descent="-410" />
<missing-glyph horiz-adv-x="716" />
<glyph horiz-adv-x="0" />
<glyph unicode="&#xd;" horiz-adv-x="716" />
<glyph unicode=" "  horiz-adv-x="716" />
<glyph unicode="&#x09;" horiz-adv-x="716" />
<glyph unicode="&#xa0;" horiz-adv-x="716" />
<glyph unicode="!" horiz-adv-x="757" d="M63 1638h441q51 -48 160 -165q-43 -307 -158 -975l123 -127q0 -57 -2 -183.5t-2 -187.5h-332l-154 158v379q2 2 174 2l-45 63q-72 346 -205 1036zM102 1606l197 -973l178 973h-375zM143 1571h287q-6 -45 -72 -410q-61 145 -69 146q-33 -74 -68 -150q-12 70 -37.5 208 t-40.5 206zM178 496q0 -29 2 -158v-150q248 0 248 2v306h-250zM227 344l78 119l74 -115l-78 -123zM233 1112h121l-59 -256z" />
<glyph unicode="&#x22;" horiz-adv-x="1126" d="M49 1284v354h326l143 -163v-271l-145 -323h-88l-109 108zM80 1298l92 -213h88l96 222v303h-276v-312zM109 1335v252h217v-254l-88 -213h-41zM145 1454l70 -117l61 125l-67 105zM571 1284v354h326l143 -163v-271l-145 -323h-88l-109 108zM602 1298l92 -213h88l97 222v303 h-277v-312zM631 1335v252h217v-254l-88 -213h-41zM668 1454l69 -117l62 125l-68 105z" />
<glyph unicode="'" horiz-adv-x="675" d="M49 1284v354h326l143 -163v-271l-145 -323h-88l-109 108zM80 1298l92 -213h88l96 222v303h-276v-312zM109 1335v252h217v-254l-88 -213h-41zM145 1454l70 -117l61 125l-67 105z" />
<glyph unicode="," horiz-adv-x="614" d="M33 2l65 92l-65 68v381h323l183 -178v-361l-334 -188zM68 180l82 -84l-76 -96l270 162v346h-276v-328zM135 340l60 125l77 -117l-69 -112q-70 98 -68 104z" />
<glyph unicode="-" d="M90 985q-6 47 6 59q125 -14 283 -14q160 0 194 17q154 -150 230 -232q2 -12 2 -24q0 -47 -51 -111q22 -55 53 -170q0 -2 -3 -3t-3 -3q-117 33 -234 33q-127 0 -227 -39q-6 2 -23 0q-74 82 -215 252q-4 8 -4 18q0 14 11.5 40t13.5 38q-12 18 -12 47v20q2 14 2 21 q0 33 -23 51zM137 784h129q-41 53 -41 84h-75q-2 -27 -13 -84zM139 965q12 -55 11 -72h71q0 35 23 72h-105zM174 997q-4 -10 2 -15t174 -5q172 -2 180 4q12 12 -4 27q-102 -16 -340 2q-10 -2 -12 -13zM209 760q0 -10 8 -19q102 25 303 0q12 23 6 25q-45 14 -159 12 q-119 -2 -158 -18zM260 879q0 -37 26.5 -62.5t63.5 -25.5t63.5 25.5t26.5 62.5t-26.5 63.5t-63.5 26.5t-63.5 -27t-26.5 -63zM289 881q0 61 61 61q62 0 62 -61t-62 -62q-61 0 -61 62zM324 879q0 -25 26 -25q27 0 27 25q0 27 -27 26q-27 0 -26 -26zM451 793q-5 -1 110 -9v84 h-82q0 -27 -28 -75zM451 965q33 -47 32 -70h76v70h-108z" />
<glyph unicode="." horiz-adv-x="675" d="M27 176v359h362l170 -179l2 -350q-4 -8 -379 -4zM68 190h284v308h-284v-308zM145 332l62 125l76 -115l-70 -113q-68 98 -68 103z" />
<glyph unicode=":" horiz-adv-x="675" d="M27 1049q10 8 170 8q156 -2 168 -6q20 -8 94 -72q84 -76 94 -111q4 -86 4 -168q0 -80 -4 -163q-16 -8 -55 -7.5t-58 -7.5q12 -29 55.5 -67.5t57.5 -61.5q4 -49 -2 -368q-2 -4 -137 -7q-133 -2 -219 2q-49 43 -152 166q-6 358 -6 361q16 10 54 9t50 3q-4 31 -43 66 q-55 49 -61 57q-2 127 -10 367zM59 1012q4 -100 11 -293q2 -8 10 -21q227 0 268 4q10 121 2 320q-86 0 -260 4q-29 2 -31 -14zM74 520q-2 -104 8 -317q43 -2 260 -2q6 -2 16 8q6 55 4 143q-4 107 -2 146q2 14 -6 26q-84 0 -258 4q-8 2 -22 -8zM147 332l62 125l76 -115 l-70 -113q-68 98 -68 103zM147 850l62 125l76 -117l-70 -96q-68 82 -68 88z" />
<glyph unicode=";" horiz-adv-x="675" d="M29 10q35 31 84 76q-16 18 -68 84v371h121l-127 127q0 113 2 368h348q90 -86 184 -180l-2 -344q-33 0 -120 -2q33 -45 118 -129q0 -106 -2 -379q0 -6 -348 -199q-68 72 -190 207zM88 1006q0 -59 2 -175v-149q47 0 154 2h125q2 59 0 160q-2 137 -2 162h-279zM92 14 q61 25 174 92q103 64 107 72q6 96 0 322l-281 -2q0 -55 2 -160v-162l70 -84q-6 -14 -36 -38.5t-36 -39.5zM168 317l61 125l76 -116l-69 -111q-68 96 -68 102zM168 844l61 112l76 -114l-69 -107q-68 104 -68 109z" />
<glyph unicode="A" horiz-adv-x="1474" d="M68 184v185q123 0 133 43q94 410 282 1226h318l196 -217q27 -127 238 -1065q53 -43 160 -143q2 -8 8 -27q2 -30 2 -75t-2 -105q-10 0 -29 -4q-58 -1 -127 -1t-151 1q-225 2 -267 2q-41 31 -127 84q-8 -12 -8 -88h-454q-63 59 -172 184zM98 182h434v158q-68 0 -90 37 q-4 20 -4 43q0 33 11 84q14 61 16 82q10 14 18 16q233 6 238 6q6 -2 16 -12q18 -53 47 -162q4 -10 -2 -41q-23 -55 -127 -55v-156h547v152q-33 10 -65 20q-39 12 -56 43q-47 219 -143 609q-104 426 -145 606h-275l-289 -1204q-14 -63 -131 -64v-162zM342 467q17 98 17 182 q0 47 -5 90q59 41 84 88h4q15 -29 31 -88q-61 -80 -117 -274q-10 -10 -14 2zM393 913q8 66 60 293q72 326 82 373h235q57 -240 150 -655q-2 -10 -18.5 -8t-22.5 -3q-35 -18 -37 -39q-2 -53 86 -129q-16 -50 -16 -147q0 -58 6 -133q-12 12 -21.5 53t-19.5 55q-29 76 -105 168 q4 12 41 62q-4 6 -10 71q0 29 -37 37h-37q-20 2 -22 23q-10 80 -39 194q-47 186 -49.5 194.5t-6.5 8.5q2 0 -14 -16q-18 -94 -74 -334q-20 -78 -63 -82q-6 -8 -15 -8q-6 0 -22 13.5t-31 8.5zM430 1065q6 -47 29 -111q22 7 69 101q3 59 3 98q0 58 -7 72h-1q-10 0 -40 -62 q-43 -82 -53 -98zM543 793q14 94 67 329q27 -110 74 -329h-141zM655 365q57 0 77 13t20 62h-97v-75zM707 1053l100 -99q24 35 51 88q-29 29 -61 82q-27 43 -52 84q-4 -10 -38 -155z" />
<glyph unicode="B" horiz-adv-x="1351" d="M68 190v179q57 0 65 2q49 0 70 43q6 192 6 448q0 205 -4 451l-133 133v190h553q172 -2 276 -47q141 -82 242 -219q111 -154 110 -303q0 -186 -176 -293q-10 -14 -4 -22q223 -205 223 -365q0 -123 -106 -252q-108 -135 -227 -135h-703zM94 195h662q172 2 248 79 q110 114 110 264q0 69 -24 128q-41 102 -209 229q80 59 125 106q98 100 98 246q0 43 -10 84q-68 279 -469 279h-523v-154q111 0 136 -72q0 -66 2 -446q2 -136 2 -249t-2 -202q-2 -61 -2 -69q-8 -39 -37 -53q-16 -10 -54 -12.5t-53 -16.5v-141zM143 1495v86h480 q176 0 303 -74q139 -100 139 -276q0 -29 -4 -60q-12 -78 -90 -151q-35 -33 -144 -113q-16 2 -47.5 -4t-44.5 -6q-25 0 -41 12q-31 -4 -61 -10q-37 -4 -62 8q-8 -2 -25.5 -6t-25.5 -6q-51 18 -61 18q-16 0 -29 -8q-29 -10 -35 -45q-1 -6 -1 -13q0 -46 63 -99 q-66 -114 -66 -227v-7q0 -39 -10 -53q2 0 -10 12q-4 147 -72 264q2 16 26.5 37t28.5 35q8 22 8 43.5t-8 42.5q-8 18 -30 18h-17q-10 -2 -14 -2q-20 0 -23 21q4 68 4 164v67q-3 112 -3 176q0 32 1 52q-10 57 -57 84q-23 12 -72 20zM305 1061l76 -94l72 84l-72 182zM492 952 q20 0 64 -3t69 -3q96 0 145 41q90 72 90 219v6q0 74 -24 160q-49 113 -195 113q-51 0 -96 -19q-53 -33 -53 -75v-439zM522 801q2 6 19 12q61 0 125 -2q74 -4 108 -47q55 -68 55 -178q0 -100 -45 -178q-49 -44 -77 -44q-3 0 -7 1q-22 -15 -59 -15q-19 0 -43 4q-55 8 -70 54 q-5 47 -5 118q0 36 1 78q2 54 2 96q0 64 -4 101zM524 989v402q0 45 38 51t69 6q102 0 152.5 -60.5t50.5 -164.5q0 -76 -25 -142q-33 -86 -125 -92h-160zM715 1036q2 0 4 -5t6 -3q76 41 76 160q0 20 -4.5 42.5t-18.5 18.5q-51 -16 -61 -59q-2 -27 -2 -154zM717 502v-15 q0 -51 12 -86q70 50 70 193v16q0 6 -8 13q-2 0 -27 2q-20 2 -31 0q-14 -4 -16 -17v-106zM879 1219q0 -12 17 -40t11 -46q0 -14 -5 -41t-5 -37q0 -12 4 -21q33 23 71.5 82.5t63.5 79.5q2 6 2 12q0 12 -13 30.5t-15 25.5q-8 10 -35 65q-20 41 -45 53q-10 -14 -17.5 -67 t-25.5 -74q-8 -12 -8 -22zM887 580q28 45 28 85q0 23 -10 53t-12 44q43 -27 80 -86q55 -89 65 -101q-18 -27 -53 -83q-8 -29 -31 -84q-3 -1 -5 -1q-4 0 -8 4q-5 7 -1 13q2 16 2 31q0 74 -55 125z" />
<glyph unicode="C" horiz-adv-x="1095" d="M49 879q0 248 74 460q53 117 135 197q96 92 209 102q10 1 19 1q54 -1 112 -29q68 -34 72 -33q25 0 45 35q0 27 16 27q6 0 14 -3q33 0 107 2l184 -192v-569h-227l-150 141q-6 20 -12 115q-4 70 -35 104q-3 1 -6 1q-22 0 -39 -40q-15 -113 -15 -314q0 -137 7 -315 q8 -43 39 -59q31 23 39 78q8 47 14 94q0 2 4 53q2 31 17 31h211q43 -47 147 -172v-13q0 -363 -221 -526q-76 -55 -186 -55q-72 0 -134 25q-238 131 -352 389q-88 199 -88 465zM82 850q0 -432 240 -610q88 -66 202 -66q66 0 119 27q227 116 231 534h-192q0 -203 -86 -311 q-47 -43 -82 -43q-18 0 -33 8q-45 35 -65 103q-2 12 -23 120q0 45 -6 185q-4 115 -4 182q0 154 18.5 271.5t63.5 164.5q38 26 59 26q4 0 8 -1q23 -2 66 -37q76 -104 80 -346h168q2 88 2 222t-2 314q-14 12 -38 14.5t-46 4.5q-25 0 -29 -23q-22 -40 -64 -40q-6 0 -12 1 q-137 63 -184 64q-33 0 -63 -12q-145 -57 -232 -205q-74 -131 -86 -299q-10 -158 -10 -248zM178 1319q74 193 250 252q25 8 49 8q43 0 116 -31.5t95 -31.5q39 0 74 53q14 8 37 8q4 -8 10 -25q0 1 0 -462h-98q-16 147 -21 167q-16 94 -59 154q-33 65 -111 65q-9 0 -18 -1 q-63 -12 -103 -82q-41 -129 -53 -471q-4 -2 -61 -9q-35 -4 -41 -34q-1 -8 -1 -16q0 -29 17 -56q4 -6 45 -53q-12 -41 -26 -129q1 -9 1 -21q0 -29 -4 -76q-12 12 -22 47q-12 43 -21 56q-25 39 -71 117q4 6 37 45q23 27 24 51q10 23 -12 55q-10 16 -59 21q-37 2 -37 29 q0 206 63 370zM164 1034q25 -31 76 -82q28 33 73 101q-14 41 -22 116q-10 94 -17 119q-16 -8 -24 -29.5t-14 -39.5q-27 -61 -72 -185z" />
<glyph unicode="D" horiz-adv-x="1361" d="M63 199v174q31 0 91 8q53 25 53 82v835q-49 43 -144 132v208h424q111 0 189 -12q276 -43 522 -481q98 -174 98 -426q0 -346 -227 -590q-141 -123 -381 -123h-452q-61 68 -173 193zM88 1450q78 0 111 -33q39 -39 39 -80l2 -811q0 -70 -9 -96q-14 -55 -61 -72 q-20 -8 -76 -12q1 -22 1 -60t-1 -91h365q276 0 332 22q166 68 245 244q68 149 68 354q0 231 -27 356q-41 186 -159 297q-61 70 -197 121q-92 18 -152 19h-481v-158zM135 1481v90h504q115 -4 221 -92q98 -80 148 -195q59 -141 67 -379q-10 2 -23 2q-20 0 -46 -4 q-40 -15 -40 -53q0 -13 5 -29q2 -18 28.5 -43.5t26.5 -42.5q0 -6 -4 -14q-37 -45 -72 -125q-47 -106 -61 -129q-10 0 -10 4t5 15.5t3 17.5q18 39 18 92q0 70 -31 141q2 14 26 35t28 37q14 22 14 41.5t-14 38.5q-11 15 -55 15q-10 0 -21 -1q-8 29 -8 80v84q-23 315 -189 403 q-20 8 -47 9q-45 0 -83 -19.5t-38 -48.5q0 -416 -4 -498q-29 -2 -57 -4q-37 -4 -41 -35q-2 -10 -2 -20q0 -35 63 -109q-70 -129 -69 -274q-8 -4 -10 -2q-14 170 -78 268q4 18 26.5 40t28.5 36q11 11 11 31q0 16 -7 39q-8 23 -42 23.5t-34 8.5v463q0 43 -49 76q-45 27 -88 27 zM303 1067q0 -6 27 -45q29 -47 39 -68q18 12 45.5 52.5t27.5 52.5q0 10 -31.5 96t-45.5 117q-61 -190 -62 -205zM524 430v948q0 37 47 56q18 8 39 8q82 0 140 -119q63 -133 63 -354q0 -66 -6 -178q-6 -132 -8 -175q-4 -172 -113 -249q-25 -18 -61 -19q-37 0 -66 21 q-35 35 -35 61zM698 420q20 0 45 84q21 73 21 112q0 -6 4 120t4 229q0 145 -10 245q0 35 -31 35q-33 -4 -33 -35v-790zM891 1018q18 -6 33.5 -33t25.5 -35q20 12 45 44t25 40q-23 33 -53 125q-29 82 -64 119q-6 -20 -2 -55q1 -22 1 -39.5t-1 -32.5q-10 -104 -10 -127v-6z " />
<glyph unicode="E" horiz-adv-x="1239" d="M57 1419v219l897 -2q178 -147 179 -161q0 -59 4 -295q2 -89 2 -162.5t-2 -132.5q-70 -2 -199 -6q-53 51 -170 155q-2 57 -25 164q-12 16 -34 4q-13 -27 -13 -72v-6q4 -39 9 -77q6 -10 120 -129q72 -74 72 -146v-8q4 -4 14 -12h43q27 -2 43 -2l172 -158v-592h-952 q-41 45 -156 168v194q0 2 45.5 6.5t62.5 24t17 33.5v846zM82 1464q0 -4 31.5 -8t44.5 -12q59 -27 59 -60v-978q0 -33 -59 -62q-14 -6 -43 -10q-18 -2 -19 -10v-142q145 0 440 2t433 2q0 88 2 264.5t2 262.5h-158q0 -240 -123 -342q-57 -27 -90 -27q-27 0 -47 12 q-47 25 -47 56v362h188v223h-192v340q0 41 29.5 75t64.5 34q6 0 14 -2q168 -78 181 -383q6 -10 12 -14q16 2 143 2v553h-866v-138zM117 1491q0 27 2 82h799q0 -412 -3 -496q-20 -1 -42.5 -1t-45.5 1q-6 4 -10 10q-8 221 -106 330q-62 54 -116 54q-9 0 -17 -1 q-109 -18 -109 -133v-368h193v-60h-222q-63 -2 -63 -35q0 -59 80 -122q-55 -125 -66 -199q-4 -53 -18 -158q-14 0 -11 21q-4 199 -81 325q63 70 63 133q0 20 -47 25.5t-47 11.5v484q0 29 -76 73q-10 6 -33.5 12.5t-23.5 10.5zM295 1032l72 -76l71 74l-76 203zM707 457 q2 -8 10 -19q37 43 55 135q-2 18 -24 21h-7q-18 0 -32 -8q-2 -18 -2 -129z" />
<glyph unicode="F" horiz-adv-x="1218" d="M55 1425v213h908l198 -198q0 -92 2 -291v-291h-200q-63 59 -193 174q-4 14 -14 96q-8 59 -21 60q-27 0 -28 -58l1 21q1 0 1 -117l180 -190v-271h-187v-221q47 -53 136 -164v-188h-615l-162 174q-1 20 -1 44t1 52q2 70 2 95q41 0 82 14q49 18 50 45l2 840q-20 33 -71.5 84 t-70.5 77zM90 1442q47 -6 60 -8q33 -8 51 -27q25 -25 26 -113q2 -266 4 -819q-2 -29 -6 -59.5t-26 -46.5q-39 -31 -103 -31v-154h541q6 37 6 150q-10 -1 -18 -1q-39 0 -56 15q-61 27 -61 60v356h188v231h-186q-3 78 -3 192q0 57 1 122q0 41 4 59q8 31 27.5 49.5t70.5 18.5 q187 -88 187 -366v-23h157v557h-864v-162zM119 1485v90h809v-502h-103q-16 279 -161 373q-34 22 -71 22h-3q-25 0 -43 -10q-70 -41 -70 -147v-348h172v-66h-217q-47 0 -47 -59q0 -27 32 -61t32 -36q-43 -51 -60 -141q-8 -80 -18 -158q-18 180 -86 301q43 43 57 78q9 15 9 35 q0 18 -7 39h-90q1 57 1 130q0 145 -3 351q-20 51 -53 72q-8 6 -49 18q-31 8 -31 19zM299 1040q25 -43 68 -90q4 8 67 84l-67 203q-14 -31 -68 -197z" />
<glyph unicode="G" horiz-adv-x="1372" d="M59 934q0 430 287 637q88 63 209 63q104 0 195 -45q8 -2 14 -2q25 0 35 31q10 18 32 18h144q66 -66 172 -186v-514h-279q-37 31 -106 104q-4 66 -10 131q-14 98 -64 99q-27 0 -57 -41q-43 -59 -43 -180q0 -27 2 -78t2 -76h545q96 -88 163 -162q4 -31 4 -98q0 -38 -1 -88 q-88 0 -115 -49q-4 -109 -4 -498h-137q0 25 -16.5 56.5t-39.5 31.5q-45 0 -112.5 -40t-99 -44t-60.5 -4q-176 0 -309 117q-233 205 -297 438q-53 195 -54 379zM98 889q0 -379 217 -600q88 -90 234 -90q55 0 108 14q18 4 95 41q46 21 81 21q7 0 13 -1q57 -25 57 -71h80v342 q0 111 23 139q35 45 98 45v133h-512v-143q90 0 104 -70q12 -61 13 -112q0 -109 -56 -162q-39 -24 -75 -24q-12 0 -25 3q-100 25 -139 170q-25 156 -25 359q0 143 12 299q18 98 23 110q16 59 51 97q52 54 109 54q6 0 12 -1q106 -12 168 -160q33 -80 33 -229h164v549h-125 q-33 -47 -74 -48q-31 0 -110 28q-69 24 -107 24h-10q-143 -16 -259 -140q-109 -113 -141 -258q-37 -166 -37 -319zM125 913q0 225 78 392q90 190 272 262q33 12 66 12q41 0 115.5 -27.5t119.5 -27.5q20 0 44 26.5t34 26.5h74v-490h-107q-4 299 -178 377q-29 8 -57 9 q-55 0 -90 -29q-100 -82 -121 -244q-8 -145 -17 -289h-71q-18 -8 -19 -53q0 -49 62 -104q-25 -74 -25 -144q0 -39 8 -78q10 -47 9 -67q-12 8 -23.5 34.5t-17.5 35.5q-49 150 -101 221q0 4 24.5 41t24.5 61q1 7 1 13q0 42 -25 42h-80zM188 1040q23 -23 58 -86q26 29 73 86 q-4 72 -26 226q-39 -57 -105 -226zM592 545q2 -27 2 -29q0 -70 35 -106q10 8 30 32q11 34 11 77v13q0 25 -21.5 46.5t-42.5 21.5q-10 -10 -12 -23.5t-2 -31.5z" />
<glyph unicode="H" horiz-adv-x="1402" d="M66 1436v202h1155l112 -143v-227q-35 0 -58.5 -28t-23.5 -60q0 -135 4.5 -419t4.5 -417l75 -80v-264h-1102l-163 190v179q111 0 135 51q2 20 6 57l-14 815q-49 43 -131 144zM92 1464q25 -4 72 -24q39 -23 65 -66q12 -590 13 -889q0 -57 -2 -65q-4 -35 -33 -53 q-47 -31 -98 -31v-143h528v135q-25 4 -70 20q-53 31 -53 80v401h299v-399q0 -45 -45 -73.5t-90 -28.5v-135h539v131q-33 0 -78 26q-51 31 -52 68v948q0 37 34 62.5t75 25.5v145h-518v-141q20 -2 61 -20q63 -23 64 -70v-383h-291v356q0 55 45 95q23 20 78 20v143h-543v-135z M127 1485v84h471v-88q-43 0 -86 -49q-35 -41 -35 -89v-385h357v414q0 41 -45.5 76t-77.5 35v90h458v-86q-39 0 -78.5 -38t-39.5 -79v-452q-20 -2 -60 -11q-33 -16 -33 -45q0 -37 25 -75.5t37 -38.5q-25 -78 -76 -295q-29 141 -82 290q10 0 39 42t29 77q0 37 -29 49 q-20 8 -51 2q-43 -10 -51 -10q-23 0 -39 15q-8 2 -17 2q-16 0 -41.5 -10.5t-37.5 -10.5q-16 0 -33 14q-10 4 -23 5q-16 0 -46 -10.5t-42 -12.5q-44 19 -77 19q-17 0 -31 -5q-25 -14 -25 -57q0 -35 24.5 -73t41.5 -38q0 -8 -31 -116q-35 -119 -45 -172q-8 51 -45 172 q-35 111 -35 120q14 0 37.5 36t23.5 71q0 31 -2 35q-10 18 -46 18t-44 21q0 143 -2 440q0 33 -35 74q-49 45 -102 45zM309 1049q25 -29 72 -78q20 25 55 82q-25 80 -65 186q-25 -66 -62 -190zM702 1020h70v209q0 19 -25 19q-5 0 -12 -1q-33 -4 -33 -43v-184zM707 416 q0 -49 9 -49h1q49 10 57 51q4 23 4 203h-71v-205zM872 1055l76 -76q23 27 66 78q-25 68 -74 180q-6 -18 -68 -182z" />
<glyph unicode="I" horiz-adv-x="880" d="M43 1440v198h594l154 -151v-207q-18 -8 -56 -29q-49 -33 -49 -102v-821l113 -109q1 -20 1 -47.5t-1 -62.5q-2 -86 -2 -109q-269 -3 -442 -3q-87 0 -150 1l-154 164v200q70 0 98.5 27t28.5 94v815q-27 45 -135 142zM76 1450q61 0 79.5 -12.5t38 -25.5t19.5 -34v-897 q0 -94 -29 -112q-51 -35 -98 -35v-144h539v136q-45 0 -80 18q-45 20 -45 55v965q0 23 28 53q35 39 84 39v150h-536v-156zM102 1473v102h486v-92q-12 -4 -41 -17q-82 -35 -82 -84v-462q-70 0 -86 -23q-8 -8 -8 -20q-2 -8 0 -25q2 -20 2 -29q0 -25 57 -80q-53 -160 -80 -292 q-25 160 -76 292q53 57 54 80q0 -4 4 37q2 23 -6 37q-12 27 -90 27v454q0 45 -62 76q-37 18 -72 19zM283 1053q25 -35 75 -103q25 35 64 103q-18 76 -62 219q-27 -74 -77 -219z" />
<glyph unicode="J" horiz-adv-x="1177" d="M53 561q0 31 4 62q29 119 105 151q29 12 61 12q61 0 111 -34q135 -96 135 -232q0 -12 10 -6t10 14l3 752q0 16 -71 74.5t-71 64.5v219h600q63 -63 170 -165v-211q-113 0 -112 -48q0 -846 -7 -876q-51 -258 -274 -326q-51 -14 -102 -14q-158 0 -338 145q-233 190 -234 418 zM86 553q0 -137 84 -231q125 -141 326 -142q82 0 155.5 28t114.5 95q37 61 37 137v903q0 39 24 70q31 39 105 39q0 25 2 76v76h-537v-138q0 -4 33 -15t43 -21q35 -31 49 -82v-887q0 -45 -10 -58q-31 -49 -91 -49h-9q-49 14 -82 70q-16 27 14 49q35 51 35 117q0 43 -17 80 q-60 85 -128 85q-8 0 -17 -1q-66 -10 -102 -66q-29 -61 -29 -135zM428 1483v96h238q162 -2 235 -2v-92q-39 0 -100 -53q-35 -45 -35 -160v-348q0 -6 -23 -4q-29 4 -45 -5q-23 -8 -22 -55q0 -45 76 -110q-16 -61 -82 -279q-27 111 -74 279q61 72 61 110q0 57 -32 58 q-72 0 -72 10v426q0 43 -68 102q-14 14 -57 27zM604 1081q23 -41 66 -116q50 115 55 115v-1q-12 57 -55 164q-20 -57 -66 -162z" />
<glyph unicode="K" horiz-adv-x="1495" d="M66 1442v196h1134q63 -55 172 -168v-208q-123 0 -168 -37q-53 -59 -106 -154q-45 -82 -90 -162q2 2 2 -26q51 -80 147 -283q88 -186 158 -281q33 -33 65 -63q41 -39 41 -49v-207h-1179l-170 190v175q84 0 118 34q14 23 15 52q0 127 -2 414.5t-2 430.5q-47 49 -135 146z M98 1452q72 -4 109 -31q31 -33 31 -96l4 -903q0 -43 -37 -67.5t-99 -24.5v-137h543v145q-72 0 -108 47q-12 29 -13 59q0 47 39 115q57 94 62.5 112.5t19.5 18.5q20 0 31 -28q39 -80 119 -238q8 -25 0 -45q-16 -45 -105 -45v-141h537q0 117 -10 145q-86 4 -119 70 q-74 147 -219 448q-6 25 -29 69t-31 66q90 143 262 436q20 31 103 31v139h-481v-145q78 0 101 -30q13 -17 13 -33q0 -13 -8 -27q-88 -158 -276 -473l-17 8q-2 145 -8 432q0 18 4 68q27 55 154 55v150h-572v-150zM125 1485v92h512v-96q-115 0 -143 -68q-10 -27 -11 -49 q0 -147 6 -449q-33 0 -83 -26q0 -29 21.5 -55.5t41.5 -51.5q-27 -68 -63 -207q-2 -47 -17 -133q-8 -4 -14 21q0 182 -84 285q2 16 24.5 34.5t26.5 30.5q18 41 18 55t-8 28.5t-42 13.5t-42 16q4 307 4 452q0 37 -55 72q-47 29 -92 35zM309 1067q12 -16 76 -104q53 81 61 106 q-27 51 -65 166q-33 -76 -72 -168zM584 915q18 37 250 426q12 37 12 61q0 17 -6 28q-20 57 -103 57v88h414v-86q-43 0 -61 -23q-72 -84 -156 -231q-111 -195 -139 -240q-2 -20 13 -46.5t15 -39.5q-43 4 -59 -12q-14 -14 -13.5 -28.5t13.5 -30.5q43 -53 102 -76 q6 -20 6 -64.5t7 -64.5q4 -39 22 -88q18 -41 35 -82h-12q-49 78 -101 155q-61 90 -123 138q20 72 21 84q0 20 -10 37q-21 35 -67 35q-13 0 -28 -3q-8 0 -26 -2q-2 4 -6 8zM690 1053q-2 -6 8.5 -37t10.5 -41l77 67q6 39 31 125q-41 -39 -127 -114zM702 530q-2 -19 -2 -43 q0 -45 7 -110q6 -1 12 -1q22 0 35 13q4 14 4 29q0 27 -56 112z" />
<glyph unicode="L" horiz-adv-x="1269" d="M66 1421v217h616l172 -182q0 -27 4 -92q3 -38 3 -64q0 -13 -1 -24q-14 -12 -54 -17.5t-58 -21.5q-29 -27 -29 -84l2 -727q2 -4 6 -4t21 22q51 100 63 328h225q53 -51 160 -147v-621l-946 -2q-74 66 -176 199v184q117 0 139 64q1 84 1 188.5t-1 228.5q-2 340 -2 418 q-37 45 -145 137zM100 1452q33 -4 93 -18q57 -23 57 -64l-2 -932q-12 -51 -76 -71q-27 -16 -59 -17v-145h891v534h-162q-12 -154 -17 -176q-18 -96 -64 -153.5t-126 -57.5q-25 0 -49.5 9.5t-55.5 58.5l2 971q35 55 130 55v166h-562v-160zM127 1477v102h500v-100l-74 -25 q-59 -27 -59 -65q0 -84 2 -240v-236q-63 0 -76.5 -13t-13.5 -58q0 -23 22.5 -44.5t42.5 -39.5q-63 -182 -82 -287q-14 63 -29 129q-25 96 -51 156q63 59 64 84q0 53 -33 65q-20 12 -53 8q0 387 -2 444.5t-60 88.5q-39 31 -98 31zM317 1057q25 -31 66 -96q17 20 66 92 q-31 98 -62 172q-6 -18 -70 -168z" />
<glyph unicode="M" horiz-adv-x="1843" d="M90 1430v204h633l147 -153q10 -59 41 -174q20 61 78 327h582q6 -6 162 -180q2 -35 2 -84.5t-2 -114.5q-117 -14 -117 -71q0 -133 2 -417t2 -427q45 -57 127 -141v-199h-573q-35 37 -107 98v-98q-162 0 -193 2l-94 84q0 -14 2 -45t2 -41h-514q-45 55 -151 188v168 q15 -1 29 -1q112 0 112 59l2 854zM133 1448q61 0 88 -14q63 -35 64 -62q0 -166 4 -488.5t4 -477.5q0 -70 -133 -70v-146h438v148h-59q-33 4 -54 72q0 104 -8 340q-6 221 -6 342q0 117 4 219q4 4 12 -6q41 -205 238 -1115h172q76 381 229 1137h23q0 -55 4 -473q1 -97 1 -181 q0 -168 -3 -284q-2 -53 -127 -53v-148h532v134q-127 0 -126 69q0 158 -2.5 488.5t-2.5 484.5q0 59 78 76q20 4 47 4v158h-544q-39 -211 -152 -680q-49 231 -147 677h-574v-151zM168 1470v93h514q51 -215 139 -650l-8 -8q-33 -4 -41 -8q-23 -8 -31 -27q-1 -6 -1 -13 q0 -30 24 -58q10 -13 57 -54q-27 -207 -26 -262q-43 102 -125 269q16 29 35 92v8q0 34 -31 45q-8 6 -21 6q-6 0 -18 -2t-19 -2q-16 0 -24 14q-33 139 -98 459h-50v-295l-59 166q-20 -59 -72 -180v315q0 35 -51 63.5t-94 28.5zM317 752q53 49 52 88v5q0 35 -52 58v139 q23 -37 58 -104q27 31 71 125v-168q-8 2 -26.5 -5t-21.5 -17.5t-3 -20.5q1 -41 56 -115q-41 -88 -62 -297q-29 139 -72 312zM616 1063q31 -33 93 -113q29 56 43 99q-59 98 -68 112q-37 66 -47 101v-8q0 -53 -21 -191zM850 752q78 63 78 106q0 10 -2 21q-8 14 -43 24l28 119 q18 -29 52 -82q0 2 88 129q-8 -55 -31 -166q-20 -8 -41 -16t-26 -23.5t-5 -27.5q0 -43 39 -86q-72 -123 -106 -267q-4 90 -31 269zM911 1032q45 180 121 533h486v-84q-37 0 -80 -24.5t-43 -57.5v-484q-23 -6 -47.5 -12t-32.5 -29q-4 -12 -4 -22q0 -27 24 -59q20 -25 41 -52 q-43 -80 -76 -292q-8 61 -18 112q-27 125 -63 182q55 47 55 111q0 16 -4 31q-17 28 -80 28h-4q-8 6 -12 17q0 362 -3 434h-61l-59 -287q-8 37 -33 164q-31 -74 -107 -209zM1227 1057q23 -33 59 -103q25 35 64 105q-18 55 -60 166q-18 -57 -63 -168z" />
<glyph unicode="N" horiz-adv-x="1392" d="M63 1421v213h521q29 -35 88 -94v96h491q84 -68 162 -157v-197q-51 0 -87 -34t-36 -60q0 -66 17 -1188h-301q-63 59 -185 178v-178h-483q-154 139 -184 182v176q25 0 69 11q20 4 41 25.5t21 37.5v850zM94 1450q55 0 72 -12q57 -31 57 -80l2 -922q0 -49 -53 -86 q-32 -22 -65 -22h-3q2 -23 2 -133h441v143q-39 0 -66 14q-59 31 -59 103v708l352 -973h262q0 268 -8 820q-2 86 -2 155q0 161 10 234q25 37 117 55v150h-434v-146q37 0 71.5 -16.5t34.5 -42.5v-537l-264 744h-467v-156zM131 1487v92q336 0 401 -2q82 -219 236 -657 q-4 -16 -20 -17q-4 0 -15 2h-14q-18 0 -23 -18q-1 -7 -1 -13q0 -57 93 -120q-2 -28 -2 -58q0 -108 23 -243q-27 63 -53 116q-68 125 -131 176q39 49 39 91q0 25 -13 43q-20 25 -66 25q-15 0 -34 -3q-49 123 -154 389q1 -88 1 -159q0 -143 -3 -220q-4 -2 -29.5 -9t-31.5 -23 q-1 -10 -1 -19q0 -60 54 -115q-49 -186 -53 -288l-64 291q0 12 16.5 27.5t20.5 23.5q6 23 6 42q0 22 -8 40q-6 8 -28.5 14t-22.5 16v142q27 -33 72 -105q4 6 51 94q-8 41 -47 183l-78 -164v332q0 29 -44 61.5t-77 32.5zM541 1055q39 -31 108 -99q27 55 33 88 q-43 59 -127 173q-4 -53 -14 -162zM606 356q0 -8 92 -90q-18 68 -92 275v-185zM752 1485v92q367 0 366 0v-90q-43 0 -88 -39q-25 -23 -33 -66v-317q-23 51 -69 149l-68 -151v340q0 29 -38 55.5t-70 26.5zM860 909v142q27 -33 74 -95q4 6 63 99v-150q-49 0 -36 2 q-23 -4 -27 -26q2 -33 61 -138q-20 -74 -53 -278q-23 100 -78 285q20 20 51 75q6 25 0 49q-6 27 -26 27q-27 0 -29 8z" />
<glyph unicode="O" horiz-adv-x="1208" d="M51 872q0 154 31 324q27 143 126 267t234 163q51 14 103 14q162 0 276 -122q87 -93 187 -279q133 -244 133 -553q0 -324 -156 -530q-117 -156 -278 -156q-25 0 -50 4q-115 4 -233 96q-68 53 -184 185q-188 211 -189 587zM80 877q0 -352 176 -543q137 -150 322 -150 q61 0 120 21q96 33 160 137q33 52 88 197q41 197 41 372q0 285 -108 469q-72 125 -174 191q-68 43 -160 43q-74 0 -139 -27q-127 -53 -209 -180q-74 -113 -95 -256q-22 -144 -22 -264v-10zM111 940v11q0 208 75 368q90 188 269 258q37 10 71 10q168 0 303 -186 q68 -92 97 -230q16 -79 28 -253q-8 -8 -26 -7h-35q-45 -4 -51 -45q-1 -3 -1 -6q0 -36 60 -96q0 -14 -15.5 -33.5t-18.5 -28t-38 -122.5q-25 -74 -65 -109l-4 4q27 72 26 141q0 82 -36 136q25 27 61 86q1 10 1 19q0 45 -34 56q-16 6 -45 5q-27 0 -26 -7q-4 143 -9 289 q-14 168 -94 250q-41 29 -72 29q-14 0 -26 -6q-78 -39 -111 -140q-20 -90 -39 -182q-4 -31 -4 -84v-53q0 -70 -6 -103q-29 6 -48 6q-15 0 -22 -4q-20 -10 -20 -39q0 -16 6 -36q4 -12 26.5 -39t22.5 -41q0 -16 -20 -31q-18 -41 -19 -92q0 -78 39 -164h-10q-74 88 -111 244 q-2 6 -14 18t-12 21q0 4 4 8q57 51 57 98q0 14 -4 29q-10 20 -40.5 25.5t-59.5 9.5q-6 2 -10 16zM174 1069q25 -31 66 -96q26 29 69 84q-37 90 -43 184q-29 -57 -92 -172zM385 821q0 203 8 293q16 164 66 277q23 49 73 49q66 0 105 -101q27 -71 31 -149q8 -213 8 -301 q0 -272 -49 -447q-23 -82 -95 -82q-27 0 -47 19q-68 76 -88 207q-12 74 -12 235zM569 895q-1 -52 -1 -96q0 -88 3 -144q6 -119 25 -159q14 -14 14 -15q18 4 31 183q10 164 10 350q0 152 -8 213q-3 27 -21 27q-3 0 -6 -1q-43 -18 -43 -120q0 -20 -4 -238zM760 1051 q18 -16 37 -50q25 -43 28 -49q18 25 38 53.5t22 51.5q-31 55 -86 180q-6 -61 -39 -186z" />
<glyph unicode="P" horiz-adv-x="1290" d="M61 1448v190h678q156 0 297 -143q123 -125 174 -289q20 -63 21 -133q0 -162 -96 -285q-122 -159 -443 -159h-4v-275l141 -170v-184h-587q-53 59 -174 195q0 162 0 161q45 0 93 17.5t48 46.5v868q-123 135 -148 160zM90 1458q63 0 102 -24.5t39 -57.5v-973q0 -29 -49 -53 t-82 -24v-129h547v110q0 12 -26 21q-41 10 -48 14q-61 35 -61 72v403q213 0 205 0q121 6 190 45q90 51 141.5 143.5t51.5 196.5q0 221 -205 363q-20 14 -74.5 30.5t-83.5 16.5h-647v-154zM125 1491v94h514q131 0 192 -22q84 -31 148 -108t78 -167q6 -39 6 -76 q0 -188 -141 -292q-12 -6 -41 -6.5t-43 -8.5q-12 4 -27 4q-14 0 -41 -5t-41 -5q-18 0 -30.5 4t-22.5 4q-14 0 -43 -7t-41 -7q-23 0 -39 12q-20 -14 -53 -8q-53 10 -58 10q-23 0 -39 -14q-8 -10 -6 -29q4 -37 4 -30q23 -33 60 -103q-37 -139 -84 -303q-20 84 -82 307 q60 98 60 138q0 5 -1 10q-8 20 -43 26q-27 6 -53 11v460q0 47 -49 82q-43 29 -84 29zM301 1055l78 -115q37 76 70 115q-47 86 -78 225q-18 -80 -70 -225zM487 956q154 0 181 5q94 16 135 94q37 68 37 159q0 117 -58 193q-66 74 -166 74q-39 0 -75 -15q-53 -29 -54 -84v-426z M520 983v399q0 39 47 60q18 4 39 4q109 0 172 -103q31 -72 31 -155q0 -72 -28.5 -129.5t-114.5 -71.5q-25 -4 -146 -4zM690 1024q39 0 68 63q24 56 24 117q0 63 -22 64q-68 0 -70 -86v-158zM866 1200q12 -39 21 -106q10 -82 12 -95q70 125 119 197q4 5 4 10.5t-4 12.5 q-33 55 -94 174q-27 -80 -58 -193z" />
<glyph unicode="Q" horiz-adv-x="1392" d="M61 920q0 381 185 593q109 125 289 125q63 0 127 -18q236 -98 382 -383q121 -231 121 -432q0 -45 -6 -90v-6q0 -42 -26 -117q10 0 42.5 -2t47.5 -2q35 -39 112 -107q8 -6 11 -47q1 -8 1 -18q0 -25 -4 -66q-2 -64 -2 -78q-41 -193 -143 -254q-35 -16 -80 -16 q-59 0 -106 25q-4 2 -78 84q-94 -111 -221 -111q-33 0 -66 8q-213 57 -377 252t-190 408q-18 135 -19 252zM84 911q0 -250 80 -424q57 -123 160 -204q113 -88 235 -90q109 8 258 122q97 -118 181 -118h1q55 0 101 30q59 51 80 133q15 59 15 107q0 44 -13 80q-18 0 -58 2h-57 q-12 -82 -68 -94q-10 -2 -18 -2q-26 0 -41 18q-18 14 -18 41v-3q2 0 14 73q47 168 47 346q0 301 -127 508q-115 184 -321 184q-47 0 -93 -12q-160 -41 -252 -203q-76 -131 -96 -313q-10 -92 -10 -181zM119 936q18 209 53 324q55 170 176 266q86 55 199 55q156 0 233 -106 q163 -222 163 -502q0 -25 -1 -51q-31 -6 -61 -11q-37 -8 -43 -41q-1 -4 -1 -8q0 -41 58 -104q-49 -74 -96 -234q-2 -2 -4 0t0 4q2 19 2 38q0 106 -58 192q6 10 41 41q25 25 27 49q1 7 1 13q0 33 -34 46q-6 2 -37 0q-18 0 -22 17q-8 276 -13 305q-25 168 -127 252 q-28 16 -50 16q-17 0 -29 -10q-61 -37 -99 -131q-29 -68 -30 -125q-12 -229 -13 -313q-29 0 -57 -3q-35 -4 -43 -30q-2 -10 -2 -19q0 -59 74 -106q-33 -160 -33 -205q0 -35 8 -66q-18 31 -57 132q-35 86 -70 129q20 20 47 67q10 15 10 31t-10 31q-24 36 -73 36q-10 0 -21 -2 q-4 6 -8 23zM174 1049q25 -33 68 -97q28 35 65 109q-18 31 -24 106q-8 86 -15 107q-51 -133 -94 -225zM387 799q0 74 6 202q8 143 10 201q2 72 29 150q37 104 98 104q63 0 103 -108q47 -137 47 -349q0 -51 -4 -178q-3 -78 -3 -132q0 -27 1 -48q-12 -82 -25 -164 q-23 -88 -86 -127q-10 -2 -20 -2q-53 0 -84 64q-72 150 -72 387zM571 768q4 -219 31 -279l14 -14q37 6 37 496q0 184 -10 256q-4 31 -27 26q-43 -18 -43 -120q0 -389 -1 -389t-1 24zM760 1061q2 -20 74 -103q22 35 51 105q-33 100 -101 244q-6 -82 -24 -246z" />
<glyph unicode="R" horiz-adv-x="1433" d="M29 1448v180h602q51 0 186 -22q55 -14 131 -68q281 -195 281 -422q0 -102 -53.5 -194.5t-143.5 -133.5q-16 -6 -4 -18q72 -68 125 -172l82 -188q49 -41 141 -125q8 -20 8 -43q0 -18 -34 -129q-74 -125 -192 -125q-14 0 -28 2q-92 12 -180 92q-43 39 -137 156 q-61 98 -86 352q-2 18 -25 43q-25 4 -28 -21q0 -180 4 -268q57 -57 133 -147q-2 -23 -2 -193h-295q-199 -2 -289 -2q-59 57 -176 170v172q14 10 57.5 19.5t61.5 27.5q12 16 25 49q0 84 -17 844q-45 55 -147 164zM57 1452q29 -2 90 -16q47 -23 60 -78q4 -20 4 -103 q0 -106 6 -424q4 -157 4 -275q0 -79 -2 -140q-33 -72 -139 -88q-1 -36 -1 -64q0 -55 5 -74q440 0 526 3q13 7 13 111v15q0 25 -29 25q-41 0 -43 2q-55 16 -66 76q-2 127 -8 385q4 6 10 16q17 4 39 4q41 0 101 -12q102 -35 125 -151q12 -100 24 -199q16 -119 55 -189 q47 -84 183 -92q143 6 200 133q3 6 3 12.5t-3 12.5q-8 10 -22 6q-70 0 -102 72q-23 61 -46 125q-37 129 -75 194q-59 102 -156 138q-10 4 -8 12q4 8 12 12q104 45 169 131t65 195q0 106 -52 192q-47 78 -137 128t-172 50h-633v-145zM96 1481v85h566q57 0 116 -18 q121 -37 197 -143q49 -70 49 -168q0 -88 -41 -160q-33 -57 -102 -102q-61 -35 -123 -72q-8 1 -18 1q-20 0 -48 -5q-47 -12 -63 -12q-27 0 -49 16q-16 2 -44 -7t-40 -9q-37 16 -69 16q-20 0 -38 -6q-27 -7 -27 -35q0 -15 7 -35q4 -20 24 -41q27 -27 33 -36q-12 -31 -39 -93 q-14 -35 -29 -176q-10 -2 -12 13q0 23 -2 24q-10 127 -72 211q4 10 35 49q23 31 23 56q2 9 2 17q0 34 -35 46q-6 4 -28.5 3t-26.5 13q1 43 1 99.5t-1 126.5q-2 174 -2 223q0 70 -76 102q-29 12 -68 17zM291 1040q20 -29 65 -75q17 26 56 69q-12 57 -26.5 112.5t-43.5 92.5 q-16 -70 -51 -199zM461 940h133q78 8 119 43q68 49 88 174q4 27 4 53q0 178 -139 248q-28 14 -65 14t-81 -14q-59 -18 -59 -76v-442zM494 971v393q0 31 36.5 51.5t69.5 20.5q63 0 109 -47q72 -76 71 -187q1 -70 -30 -129q-37 -59 -138 -100q-39 -2 -118 -2zM666 1018 q78 59 77 168q1 68 -26 80q-12 6 -33 6q-18 0 -18 -21q1 -36 1 -94.5t-1 -138.5zM786 805q23 0 80 -76q91 -113 105 -129q0 -133 -29 -213q-31 113 -125 193q20 29 21 69q0 70 -52 156zM836 1206q16 -27 20 -70.5t8 -82.5q35 41 73 84.5t38 70.5q-25 59 -86 174 q-12 -47 -53 -176z" />
<glyph unicode="S" horiz-adv-x="1085" d="M51 201v571q37 0 123 2h127q61 -63 148 -137q0 -160 57 -246q9 -18 27.5 -18.5t46.5 18.5q25 16 25 53q0 22 -9 52q-35 88 -137 182q-90 78 -178 156q-203 195 -203 444q0 88 31 170q29 76 105.5 131t145.5 55q59 0 135 -29.5t78 -29.5q18 0 42 29.5t26 29.5h158 q53 -43 166 -164v-596l-213 3q-57 68 -146 184q0 74 -20 162q-14 25 -47 10q-14 -23 -15 -47q0 -12 39 -119q51 -80 195 -240q137 -156 192 -241q86 -143 86 -284q0 -225 -149 -282q-55 -22 -118 -22h-5q-127 0 -236 70q-25 6 -43 -14.5t-18 -41.5h-238q-47 37 -178 189z M88 201q127 0 174 -2q0 31 20.5 56.5t45.5 25.5q12 0 22 -7q111 -73 237 -73h3q92 0 166 41q108 79 108 240q0 63 -16 120q-49 125 -184 272q-117 121 -234 244q-108 122 -108 204q0 28 9 54.5t43 45t54 12.5q78 -25 135.5 -96.5t67.5 -153.5q6 -16 8 -63.5t14 -67.5h119 v555h-110q-8 0 -24.5 -27t-33.5 -33q-6 -1 -13 -1q-41 0 -107 33q-62 31 -106 31q-9 0 -18 -1q-133 -25 -200 -125q-51 -78 -51 -185q0 -131 69 -270q51 -104 223 -256.5t224 -253.5q14 -39 14 -74q0 -51 -31 -79q-20 -20 -59 -21q-35 0 -78 16q-102 57 -158.5 159 t-56.5 216h-168v-536zM133 1272q0 80 33 153q29 63 82 107q61 49 131 49q33 0 104.5 -31.5t104.5 -31.5q53 0 80 65h71q0 -82 2 -248v-248h-77q-8 18 -11 56q-2 47 -4 55q-29 168 -162 246q-33 18 -75 18q-49 0 -74 -28q-41 -39 -41 -109q0 -27 6 -55q35 -84 123 -185 q78 -84 154 -167q-8 -6 -41 -7q-25 2 -35 -18q-2 -5 -2 -9q0 -24 45 -48q18 -10 119 -35v-5q0 -70 52 -197q54 -132 54 -146q0 -13 -8 -13q-74 176 -180 240q-18 12 -58 33q0 115 -129 192q-18 6 -49 2q-37 -6 -51 -4q-164 174 -164 369zM244 1176q10 -31 14 -82 q4 -66 8 -84q43 -8 121 -54q4 1 4 5q-4 39 -24 112q-37 27 -123 103z" />
<glyph unicode="T" horiz-adv-x="1300" d="M55 1636h989q66 -57 187 -176q0 -98 2 -303v-297h-201l-129 90v-590q51 -49 144 -147v-211h-613q-55 55 -160 162v207q125 0 125 98v383h-170q-80 92 -172 201v293q-2 199 -2 290zM102 1049h162v96q4 121 8 149q10 84 50 136q18 18 43 18q29 0 51 -22.5t22 -59.5v-942 q-8 -41 -47 -65.5t-82 -24.5v-139h541v127q-68 0 -109 36q-33 31 -32 64l2 883q0 133 63 133q31 0 54.5 -34t23.5 -83v-274h176v559h-926v-557zM129 1073v506h864v-506h-112v248q0 66 -32 104.5t-73 38.5q-88 0 -88 -135q0 -412 0 -411q-10 -6 -53 -9q-33 -2 -41 -28 q-1 -5 -1 -10q0 -43 58 -115q-35 -139 -80 -295q-31 190 -86 299q61 55 62 100q0 12 -4 25q-10 20 -46 23t-36 20v471q0 29 -32 51.5t-67 22.5q-23 0 -36 -11q-59 -49 -74 -137q-8 -41 -8 -162v-90h-115zM502 1044q25 -35 65 -100q29 35 74 105q-25 37 -70 182 q-31 -74 -69 -187z" />
<glyph unicode="U" horiz-adv-x="1341" d="M61 1423v213h1045q115 -103 170 -166q0 -174 -4 -200q-41 0 -74 -29t-33 -78l2 -770q0 -98 -55 -200q-63 -117 -164 -160q-80 -35 -172 -35q-188 0 -352 119q-236 203 -236 379l-2 778q-31 51 -125 149zM94 1470q47 0 85 -27.5t38 -70.5v-868q0 -74 50 -144.5t122 -113.5 q106 -63 254 -64q135 0 234 58q86 66 104 206q2 154 2 922q0 33 34.5 58.5t69.5 25.5v150h-417v-152q127 0 129 -76q4 -155 4 -442q0 -192 -2 -443q0 -55 -62 -100q-35 -20 -82 -20q-59 0 -102 30q-33 27 -47 101l-2 884q0 66 123 66v152h-535v-132zM131 1493v78h467v-86 q-45 0 -87 -31t-42 -70q0 -66 -2 -217t-2 -266q-10 -6 -51 0q-31 4 -39 -22q-4 -10 -4 -21q0 -35 80 -115q-68 -59 -86 -264q-27 137 -91 269q59 23 60 61q11 18 11 36q0 22 -15 44q-10 10 -44 11t-34 18v241q-2 162 -2 240q0 39 -40 66.5t-79 27.5zM276 1055q20 -39 82 -97 q33 38 74 101q-31 55 -74 194q-25 -76 -82 -198zM686 453q8 -33 29 -33h2q51 14 51 82v729q0 33 -33 22q-35 -10 -47 -63q0 -248 -2 -737zM696 1485v90h353v-94q-33 0 -66 -27t-33 -59v-310q-2 8 -61 189q-25 -104 -58 -197v299q0 45 -44 77t-91 32zM831 907v162 q18 -45 64 -115q10 10 28.5 64.5t26.5 60.5v-176q-45 -16 -43 -39q-4 -27 11.5 -53.5t29.5 -50.5q-33 -115 -51 -291q-2 -6 -4 -10q1 8 1 17q0 96 -58 280q0 4 14 22.5t18 28.5q10 32 10 53q0 16 -6 25q-41 8 -41 22z" />
<glyph unicode="V" horiz-adv-x="1382" d="M63 1411v223h1076q61 -55 176 -164q6 -51 6 -108q0 -58 -6 -107q-45 -4 -101 -26q-115 -455 -321 -1227h-246q-55 63 -168 180q-55 207 -129 539q-100 449 -123 545q-82 66 -164 145zM96 1452q102 0 137 -92q82 -362 277 -1165h207q51 221 289 1153q24 98 124 98v160 h-423v-154q109 0 108 -92q-41 -176 -151 -555q-45 184 -123 563q-1 8 -1 16q0 70 119 70v158h-563v-160zM131 1481v92h500v-88q-47 0 -90 -36q-38 -32 -38 -75q0 -6 1 -12q10 -70 45 -225q39 -162 49 -236h-14q-54 0 -68 -29q-2 -8 -2 -16q0 -32 27 -57q6 -6 65 -51 q-4 -98 -22 -289q-43 92 -142 276q2 10 25 56q18 35 18 57q0 18 -10 37q-16 14 -45 17t-55 5q-31 154 -103 457q-45 117 -141 117zM383 1044q45 -51 98 -98q16 33 49 94q-88 152 -122 220q-6 -74 -25 -216zM692 762q66 29 76 65q3 9 3 18q0 32 -34 60q10 43 31 125 q16 -31 31 -92q32 48 98 109q-10 -55 -41 -146q-8 -10 -43 -14q-12 -20 -12 -45q0 -23 24 -94q-98 -201 -129 -291q0 100 -4 305zM741 1485v86h355v-88q-41 0 -82 -51q-33 -41 -45 -86q-29 -127 -72 -293q0 82 -6 225q-37 -88 -123 -242l84 344q0 47 -34 76t-77 29z" />
<glyph unicode="W" horiz-adv-x="1914" d="M92 1436v198h576q31 -25 88 -67q14 39 20 67h289q27 -20 76 -59l12 59h485q10 -10 183 -200v-174q-129 0 -146 -89q-78 -391 -225 -1169q-45 0 -145 2h-148q-47 45 -139 143l-49 144l-88 -287h-236q-96 100 -174 186q-111 528 -209 1063q-31 37 -170 183zM123 1448 q47 0 88 -23q45 -29 55 -73q82 -358 240 -1159h209q43 213 131 638q4 17 4 29q0 28 -19 35q-31 10 -48 -10.5t-17 -44.5q0 -18 31 -95q-47 -117 -129 -288q-2 28 -2 67t2 88q6 121 6 154q43 25 59 104q4 16 -16.5 25.5t-24.5 13.5q0 25 139 666h175q51 -223 143 -670 q-12 -8 -33 -6q-27 2 -33 0q-18 -4 -26 -39v-9q0 -70 92 -108q-6 -35 -29 -297q-43 70 -145 299q47 55 47 93q-2 23 -6 32q-6 18 -21 25q-49 10 -61 4q-37 -12 -37 -47q0 -8 2 -16q47 -246 64 -326q37 -180 75 -320h211q25 104 111 539q88 444 117 619q6 39 46 76.5t89 37.5 v144h-432v-142q56 0 84 -28q23 -23 23 -52q0 -7 -1 -14q-20 -152 -100 -475q-47 215 -154 711h-223l-162 -725q-37 168 -92 505v6q0 31 37 48q33 14 70 14v152h-539v-158zM166 1485v90h463v-92q-37 0 -70 -25q-37 -24 -37 -56q0 -58 33 -233q41 -209 47 -251 q-35 -10 -43 -13q-23 -10 -31 -26q-7 -13 -7 -26q0 -19 14 -40q8 -12 73 -72q-10 -57 -12 -157q-6 -106 -8 -129q-55 139 -135 280q43 59 43 107q0 23 -11 41q-18 23 -48 23q-16 0 -36 -7q0 4 -5 4t-5 2q-31 158 -96 471q-10 47 -49 78t-80 31zM399 1051q33 -33 93 -101 q24 29 51 99q-35 66 -105 190q-12 -63 -39 -188zM737 1038q12 -29 45 -80q25 27 74 76v12q0 58 -16 189q-33 -72 -103 -197zM942 1036q27 -33 80 -90q22 32 49 98q-39 49 -106 193q-10 -66 -23 -201zM1196 731q4 10 49 60q31 37 31 65q0 14 -6 31q-12 10 -25.5 20.5 t-13.5 22.5q0 8 4 18q47 221 82 412q2 10 2 20q1 37 -23 68q-30 39 -86 39v86h369v-84q-33 0 -77 -44t-52 -91q-25 -150 -86 -447q-29 -8 -41 -16q-23 -14 -25 -37q-2 -8 -2 -16q0 -18 11.5 -47t13.5 -39q-35 -100 -117 -301q0 94 -8 280zM1280 1061q0 -45 25 -107 q34 48 61 97q-6 45 -20 133q-20 -41 -66 -123z" />
<glyph unicode="X" horiz-adv-x="1443" d="M63 188v179q86 0 134 51q92 135 258 438q-6 25 -101 223q-29 63 -88 185q-66 55 -186 172v198h1096q61 -57 174 -178l6 -172q-10 -6 -37 -5t-37 -3h-3q-63 0 -117 -94q-56 -96 -169 -281q49 -127 137 -309q147 -303 148 -303q31 -29 96 -94v-189h-1143q-119 115 -168 182 zM106 203h449v137q-45 0 -80 14q-41 18 -41 47q0 16 12 35q37 61 111 182q10 25 27 25q10 0 18 -12q35 -70 103 -213q6 -14 6 -27q0 -53 -99 -53v-135h518v143q-74 0 -120 80q-88 184 -250 528q135 238 295 473q26 39 92 39v133h-442v-141q45 0 73.5 -20.5t28.5 -46.5 q0 -10 -4 -19q-39 -68 -137 -223q-8 16 -105 231q-4 8 -4 17q0 27 32 44t66 17v141h-534v-151q35 0 71.5 -19.5t49.5 -39.5q53 -94 127 -259q88 -195 123 -260q4 -4 4 -26q-98 -168 -142 -240q-82 -133 -153 -233q-27 -45 -95 -45v-123zM145 1483v90h482v-88q-31 1 -69 -27 q-33 -24 -33 -51q0 -4 1 -8q18 -109 136 -305q86 131 165 270q4 12 4 25q0 35 -33.5 64.5t-70.5 29.5v88h399v-78q-61 0 -102 -61q-84 -137 -231 -373q-18 0 -13 16q0 23 25 129q-76 -88 -133 -139q2 -45 16 -123q8 25 45 62q57 49 58 51q0 -3 -31 -51q-26 -41 -26 -55 q0 -3 1 -5q0 -6 8.5 -19.5t6.5 -21.5q-20 2 -41 2q-27 0 -31 -24q0 -68 125 -121q4 -57 10 -109q14 -121 37 -184q-68 92 -213 260q-4 6 -4 16q0 8 7 32t5 38q4 33 -16 53q-18 -18 -21 -55q2 -33 2 -63q2 -10 -4 -29q-78 -51 -229 -252q35 102 96 309q31 18 62.5 39t44.5 51 q6 27 -21 41q-8 4 -29 -2q-16 -6 -24 4q-74 158 -221 473q-47 100 -140 101zM475 1231q0 -10 6 -96q3 -25 3 -47q0 -29 -5 -50q74 -61 127 -82q21 93 21 111q-59 70 -152 164z" />
<glyph unicode="Y" horiz-adv-x="1474" d="M68 1419v215h1155q16 -12 172 -155q10 -71 10 -129q0 -44 -6 -80q-2 -2 -15 -8q-43 -6 -86 -15q-51 -8 -67 -43q-25 -49 -225 -540v-322q45 -41 122 -125v-217h-602q-57 53 -176 190v191q141 0 142 94v-2q-1 0 -7 305q-33 90 -100 234q-82 176 -104 231q-4 8 -19.5 7 t-19.5 3q-10 8 -174 166zM102 1452q104 0 166 -78l254 -592q4 -53 4 -299q0 -133 -133 -133v-151h535v129q-49 0 -86 22q-43 27 -43 74v332q82 201 243 606q37 92 158 92v145h-457q-2 -25 -2 -145q37 0 70 -16q41 -18 41 -49q0 -10 -4 -21q-41 -109 -139 -317 q-47 102 -131 311q-4 14 -5 24q0 70 111 70v148h-582v-152zM135 1479v96h524v-92q-49 0 -81.5 -31t-32.5 -70q0 -16 6 -30q47 -119 156 -353q66 106 167 373q4 12 5 25q0 35 -37 59.5t-76 24.5v94h401v-92q-102 0 -137 -86q-59 -147 -194 -498q-16 -2 -48 2q-39 4 -51 4 q-45 0 -63 -33q8 -84 69 -124q-25 -59 -51 -166q-16 -63 -30 -129q-29 104 -84 292q20 27 43.5 55.5t23.5 53.5q0 14 -8 31q-18 20 -51 20q-8 0 -25.5 -2t-25.5 -2q-23 0 -37 10q-63 162 -203 482q-59 86 -160 86zM479 1221l6 -193q29 -23 99 -94q18 34 47 102 q-39 41 -152 185zM770 1040q-1 -18 -1 -32q0 -28 3 -41q33 29 94 82q1 -1 19 159q-8 -12 -115 -168z" />
<glyph unicode="Z" horiz-adv-x="1208" d="M53 199q166 391 262 661h-94q-57 57 -153 170v604h915q43 -45 123 -131q-96 -248 -281 -735h160q104 -90 162 -160v-583l-959 -2zM92 205h877q1 120 1 219q0 197 -3 309h-176q-4 -207 -123 -327q-53 -53 -107 -54q-72 0 -72 64q0 12 5 24q139 358 444 1162h-840v-539h174 q0 90 21 156q35 113 59 153q43 74 111 74q69 0 69 -80q0 -20 -6 -37q-127 -348 -434 -1124zM129 1104v471h754q-74 -215 -232 -645q-8 -20 -35 -21q-6 0 -20 2h-23q-31 0 -43 -20.5t-12 -50.5q0 -49 23 -103q-25 -55 -90 -137q-72 -92 -97 -135q12 285 13 287q47 20 69 34 q43 27 47 56q1 8 1 15q0 39 -38 50q-43 -8 -43 15q0 6 7 14q53 131 151 418q4 12 4 22q0 41 -34.5 71t-73.5 30q-104 0 -164 -148q-49 -123 -49 -225h-115zM518 1061q6 -29 14 -88q39 25 117 82q0 23 -12 153q-35 -49 -119 -147z" />
<glyph unicode="a" horiz-adv-x="1474" d="M68 184v185q123 0 133 43q94 410 282 1226h318l196 -217q27 -127 238 -1065q53 -43 160 -143q2 -8 8 -27q2 -30 2 -75t-2 -105q-10 0 -29 -4q-58 -1 -127 -1t-151 1q-225 2 -267 2q-41 31 -127 84q-8 -12 -8 -88h-454q-63 59 -172 184zM98 182h434v158q-68 0 -90 37 q-4 20 -4 43q0 33 11 84q14 61 16 82q10 14 18 16q233 6 238 6q6 -2 16 -12q18 -53 47 -162q4 -10 -2 -41q-23 -55 -127 -55v-156h547v152q-33 10 -65 20q-39 12 -56 43q-47 219 -143 609q-104 426 -145 606h-275l-289 -1204q-14 -63 -131 -64v-162zM342 467q17 98 17 182 q0 47 -5 90q59 41 84 88h4q15 -29 31 -88q-61 -80 -117 -274q-10 -10 -14 2zM393 913q8 66 60 293q72 326 82 373h235q57 -240 150 -655q-2 -10 -18.5 -8t-22.5 -3q-35 -18 -37 -39q-2 -53 86 -129q-16 -50 -16 -147q0 -58 6 -133q-12 12 -21.5 53t-19.5 55q-29 76 -105 168 q4 12 41 62q-4 6 -10 71q0 29 -37 37h-37q-20 2 -22 23q-10 80 -39 194q-47 186 -49.5 194.5t-6.5 8.5q2 0 -14 -16q-18 -94 -74 -334q-20 -78 -63 -82q-6 -8 -15 -8q-6 0 -22 13.5t-31 8.5zM430 1065q6 -47 29 -111q22 7 69 101q3 59 3 98q0 58 -7 72h-1q-10 0 -40 -62 q-43 -82 -53 -98zM543 793q14 94 67 329q27 -110 74 -329h-141zM655 365q57 0 77 13t20 62h-97v-75zM707 1053l100 -99q24 35 51 88q-29 29 -61 82q-27 43 -52 84q-4 -10 -38 -155z" />
<glyph unicode="b" horiz-adv-x="1351" d="M68 190v179q57 0 65 2q49 0 70 43q6 192 6 448q0 205 -4 451l-133 133v190h553q172 -2 276 -47q141 -82 242 -219q111 -154 110 -303q0 -186 -176 -293q-10 -14 -4 -22q223 -205 223 -365q0 -123 -106 -252q-108 -135 -227 -135h-703zM94 195h662q172 2 248 79 q110 114 110 264q0 69 -24 128q-41 102 -209 229q80 59 125 106q98 100 98 246q0 43 -10 84q-68 279 -469 279h-523v-154q111 0 136 -72q0 -66 2 -446q2 -136 2 -249t-2 -202q-2 -61 -2 -69q-8 -39 -37 -53q-16 -10 -54 -12.5t-53 -16.5v-141zM143 1495v86h480 q176 0 303 -74q139 -100 139 -276q0 -29 -4 -60q-12 -78 -90 -151q-35 -33 -144 -113q-16 2 -47.5 -4t-44.5 -6q-25 0 -41 12q-31 -4 -61 -10q-37 -4 -62 8q-8 -2 -25.5 -6t-25.5 -6q-51 18 -61 18q-16 0 -29 -8q-29 -10 -35 -45q-1 -6 -1 -13q0 -46 63 -99 q-66 -114 -66 -227v-7q0 -39 -10 -53q2 0 -10 12q-4 147 -72 264q2 16 26.5 37t28.5 35q8 22 8 43.5t-8 42.5q-8 18 -30 18h-17q-10 -2 -14 -2q-20 0 -23 21q4 68 4 164v67q-3 112 -3 176q0 32 1 52q-10 57 -57 84q-23 12 -72 20zM305 1061l76 -94l72 84l-72 182zM492 952 q20 0 64 -3t69 -3q96 0 145 41q90 72 90 219v6q0 74 -24 160q-49 113 -195 113q-51 0 -96 -19q-53 -33 -53 -75v-439zM522 801q2 6 19 12q61 0 125 -2q74 -4 108 -47q55 -68 55 -178q0 -100 -45 -178q-49 -44 -77 -44q-3 0 -7 1q-22 -15 -59 -15q-19 0 -43 4q-55 8 -70 54 q-5 47 -5 118q0 36 1 78q2 54 2 96q0 64 -4 101zM524 989v402q0 45 38 51t69 6q102 0 152.5 -60.5t50.5 -164.5q0 -76 -25 -142q-33 -86 -125 -92h-160zM715 1036q2 0 4 -5t6 -3q76 41 76 160q0 20 -4.5 42.5t-18.5 18.5q-51 -16 -61 -59q-2 -27 -2 -154zM717 502v-15 q0 -51 12 -86q70 50 70 193v16q0 6 -8 13q-2 0 -27 2q-20 2 -31 0q-14 -4 -16 -17v-106zM879 1219q0 -12 17 -40t11 -46q0 -14 -5 -41t-5 -37q0 -12 4 -21q33 23 71.5 82.5t63.5 79.5q2 6 2 12q0 12 -13 30.5t-15 25.5q-8 10 -35 65q-20 41 -45 53q-10 -14 -17.5 -67 t-25.5 -74q-8 -12 -8 -22zM887 580q28 45 28 85q0 23 -10 53t-12 44q43 -27 80 -86q55 -89 65 -101q-18 -27 -53 -83q-8 -29 -31 -84q-3 -1 -5 -1q-4 0 -8 4q-5 7 -1 13q2 16 2 31q0 74 -55 125z" />
<glyph unicode="c" horiz-adv-x="1095" d="M49 879q0 248 74 460q53 117 135 197q96 92 209 102q10 1 19 1q54 -1 112 -29q68 -34 72 -33q25 0 45 35q0 27 16 27q6 0 14 -3q33 0 107 2l184 -192v-569h-227l-150 141q-6 20 -12 115q-4 70 -35 104q-3 1 -6 1q-22 0 -39 -40q-15 -113 -15 -314q0 -137 7 -315 q8 -43 39 -59q31 23 39 78q8 47 14 94q0 2 4 53q2 31 17 31h211q43 -47 147 -172v-13q0 -363 -221 -526q-76 -55 -186 -55q-72 0 -134 25q-238 131 -352 389q-88 199 -88 465zM82 850q0 -432 240 -610q88 -66 202 -66q66 0 119 27q227 116 231 534h-192q0 -203 -86 -311 q-47 -43 -82 -43q-18 0 -33 8q-45 35 -65 103q-2 12 -23 120q0 45 -6 185q-4 115 -4 182q0 154 18.5 271.5t63.5 164.5q38 26 59 26q4 0 8 -1q23 -2 66 -37q76 -104 80 -346h168q2 88 2 222t-2 314q-14 12 -38 14.5t-46 4.5q-25 0 -29 -23q-22 -40 -64 -40q-6 0 -12 1 q-137 63 -184 64q-33 0 -63 -12q-145 -57 -232 -205q-74 -131 -86 -299q-10 -158 -10 -248zM178 1319q74 193 250 252q25 8 49 8q43 0 116 -31.5t95 -31.5q39 0 74 53q14 8 37 8q4 -8 10 -25q0 1 0 -462h-98q-16 147 -21 167q-16 94 -59 154q-33 65 -111 65q-9 0 -18 -1 q-63 -12 -103 -82q-41 -129 -53 -471q-4 -2 -61 -9q-35 -4 -41 -34q-1 -8 -1 -16q0 -29 17 -56q4 -6 45 -53q-12 -41 -26 -129q1 -9 1 -21q0 -29 -4 -76q-12 12 -22 47q-12 43 -21 56q-25 39 -71 117q4 6 37 45q23 27 24 51q10 23 -12 55q-10 16 -59 21q-37 2 -37 29 q0 206 63 370zM164 1034q25 -31 76 -82q28 33 73 101q-14 41 -22 116q-10 94 -17 119q-16 -8 -24 -29.5t-14 -39.5q-27 -61 -72 -185z" />
<glyph unicode="d" horiz-adv-x="1361" d="M63 199v174q31 0 91 8q53 25 53 82v835q-49 43 -144 132v208h424q111 0 189 -12q276 -43 522 -481q98 -174 98 -426q0 -346 -227 -590q-141 -123 -381 -123h-452q-61 68 -173 193zM88 1450q78 0 111 -33q39 -39 39 -80l2 -811q0 -70 -9 -96q-14 -55 -61 -72 q-20 -8 -76 -12q1 -22 1 -60t-1 -91h365q276 0 332 22q166 68 245 244q68 149 68 354q0 231 -27 356q-41 186 -159 297q-61 70 -197 121q-92 18 -152 19h-481v-158zM135 1481v90h504q115 -4 221 -92q98 -80 148 -195q59 -141 67 -379q-10 2 -23 2q-20 0 -46 -4 q-40 -15 -40 -53q0 -13 5 -29q2 -18 28.5 -43.5t26.5 -42.5q0 -6 -4 -14q-37 -45 -72 -125q-47 -106 -61 -129q-10 0 -10 4t5 15.5t3 17.5q18 39 18 92q0 70 -31 141q2 14 26 35t28 37q14 22 14 41.5t-14 38.5q-11 15 -55 15q-10 0 -21 -1q-8 29 -8 80v84q-23 315 -189 403 q-20 8 -47 9q-45 0 -83 -19.5t-38 -48.5q0 -416 -4 -498q-29 -2 -57 -4q-37 -4 -41 -35q-2 -10 -2 -20q0 -35 63 -109q-70 -129 -69 -274q-8 -4 -10 -2q-14 170 -78 268q4 18 26.5 40t28.5 36q11 11 11 31q0 16 -7 39q-8 23 -42 23.5t-34 8.5v463q0 43 -49 76q-45 27 -88 27 zM303 1067q0 -6 27 -45q29 -47 39 -68q18 12 45.5 52.5t27.5 52.5q0 10 -31.5 96t-45.5 117q-61 -190 -62 -205zM524 430v948q0 37 47 56q18 8 39 8q82 0 140 -119q63 -133 63 -354q0 -66 -6 -178q-6 -132 -8 -175q-4 -172 -113 -249q-25 -18 -61 -19q-37 0 -66 21 q-35 35 -35 61zM698 420q20 0 45 84q21 73 21 112q0 -6 4 120t4 229q0 145 -10 245q0 35 -31 35q-33 -4 -33 -35v-790zM891 1018q18 -6 33.5 -33t25.5 -35q20 12 45 44t25 40q-23 33 -53 125q-29 82 -64 119q-6 -20 -2 -55q1 -22 1 -39.5t-1 -32.5q-10 -104 -10 -127v-6z " />
<glyph unicode="e" horiz-adv-x="1239" d="M57 1419v219l897 -2q178 -147 179 -161q0 -59 4 -295q2 -89 2 -162.5t-2 -132.5q-70 -2 -199 -6q-53 51 -170 155q-2 57 -25 164q-12 16 -34 4q-13 -27 -13 -72v-6q4 -39 9 -77q6 -10 120 -129q72 -74 72 -146v-8q4 -4 14 -12h43q27 -2 43 -2l172 -158v-592h-952 q-41 45 -156 168v194q0 2 45.5 6.5t62.5 24t17 33.5v846zM82 1464q0 -4 31.5 -8t44.5 -12q59 -27 59 -60v-978q0 -33 -59 -62q-14 -6 -43 -10q-18 -2 -19 -10v-142q145 0 440 2t433 2q0 88 2 264.5t2 262.5h-158q0 -240 -123 -342q-57 -27 -90 -27q-27 0 -47 12 q-47 25 -47 56v362h188v223h-192v340q0 41 29.5 75t64.5 34q6 0 14 -2q168 -78 181 -383q6 -10 12 -14q16 2 143 2v553h-866v-138zM117 1491q0 27 2 82h799q0 -412 -3 -496q-20 -1 -42.5 -1t-45.5 1q-6 4 -10 10q-8 221 -106 330q-62 54 -116 54q-9 0 -17 -1 q-109 -18 -109 -133v-368h193v-60h-222q-63 -2 -63 -35q0 -59 80 -122q-55 -125 -66 -199q-4 -53 -18 -158q-14 0 -11 21q-4 199 -81 325q63 70 63 133q0 20 -47 25.5t-47 11.5v484q0 29 -76 73q-10 6 -33.5 12.5t-23.5 10.5zM295 1032l72 -76l71 74l-76 203zM707 457 q2 -8 10 -19q37 43 55 135q-2 18 -24 21h-7q-18 0 -32 -8q-2 -18 -2 -129z" />
<glyph unicode="f" horiz-adv-x="1218" d="M55 1425v213h908l198 -198q0 -92 2 -291v-291h-200q-63 59 -193 174q-4 14 -14 96q-8 59 -21 60q-27 0 -28 -58l1 21q1 0 1 -117l180 -190v-271h-187v-221q47 -53 136 -164v-188h-615l-162 174q-1 20 -1 44t1 52q2 70 2 95q41 0 82 14q49 18 50 45l2 840q-20 33 -71.5 84 t-70.5 77zM90 1442q47 -6 60 -8q33 -8 51 -27q25 -25 26 -113q2 -266 4 -819q-2 -29 -6 -59.5t-26 -46.5q-39 -31 -103 -31v-154h541q6 37 6 150q-10 -1 -18 -1q-39 0 -56 15q-61 27 -61 60v356h188v231h-186q-3 78 -3 192q0 56 1 122q0 41 4 59q8 31 27.5 49.5t70.5 18.5 q187 -88 187 -366v-23h157v557h-864v-162zM119 1485v90h809v-502h-103q-16 279 -161 373q-34 22 -71 22h-3q-25 0 -43 -10q-70 -41 -70 -147v-348h172v-66h-217q-47 0 -47 -59q0 -27 32 -61t32 -36q-43 -51 -60 -141q-8 -80 -18 -158q-18 180 -86 301q43 43 57 78q9 15 9 35 q0 18 -7 39h-90q1 57 1 130q0 145 -3 351q-20 51 -53 72q-8 6 -49 18q-31 8 -31 19zM299 1040q25 -43 68 -90q4 8 67 84l-67 203q-14 -31 -68 -197z" />
<glyph unicode="g" horiz-adv-x="1372" d="M59 934q0 430 287 637q88 63 209 63q104 0 195 -45q8 -2 14 -2q25 0 35 31q10 18 32 18h144q66 -66 172 -186v-514h-279q-37 31 -106 104q-4 66 -10 131q-14 98 -64 99q-27 0 -57 -41q-43 -59 -43 -180q0 -27 2 -78t2 -76h545q96 -88 163 -162q4 -31 4 -98q0 -38 -1 -88 q-88 0 -115 -49q-4 -109 -4 -498h-137q0 25 -16.5 56.5t-39.5 31.5q-45 0 -112.5 -40t-99 -44t-60.5 -4q-176 0 -309 117q-233 205 -297 438q-53 195 -54 379zM98 889q0 -379 217 -600q88 -90 234 -90q55 0 108 14q18 4 95 41q46 21 81 21q7 0 13 -1q57 -25 57 -71h80v342 q0 111 23 139q35 45 98 45v133h-512v-143q90 0 104 -70q12 -61 13 -112q0 -109 -56 -162q-39 -24 -75 -24q-12 0 -25 3q-100 25 -139 170q-25 156 -25 359q0 143 12 299q18 98 23 110q16 59 51 97q52 54 109 54q6 0 12 -1q106 -12 168 -160q33 -80 33 -229h164v549h-125 q-33 -47 -74 -48q-31 0 -110 28q-69 24 -107 24h-10q-143 -16 -259 -140q-109 -113 -141 -258q-37 -166 -37 -319zM125 913q0 225 78 392q90 190 272 262q33 12 66 12q41 0 115.5 -27.5t119.5 -27.5q20 0 44 26.5t34 26.5h74v-490h-107q-4 299 -178 377q-29 8 -57 9 q-55 0 -90 -29q-100 -82 -121 -244q-8 -145 -17 -289h-71q-18 -8 -19 -53q0 -49 62 -104q-25 -74 -25 -144q0 -39 8 -78q10 -47 9 -67q-12 8 -23.5 34.5t-17.5 35.5q-49 150 -101 221q0 4 24.5 41t24.5 61q1 7 1 13q0 42 -25 42h-80zM188 1040q23 -23 58 -86q26 29 73 86 q-4 72 -26 226q-39 -57 -105 -226zM592 545q2 -27 2 -29q0 -70 35 -106q10 8 30 32q11 34 11 77v13q0 25 -21.5 46.5t-42.5 21.5q-10 -10 -12 -23.5t-2 -31.5z" />
<glyph unicode="h" horiz-adv-x="1402" d="M66 1436v202h1155l112 -143v-227q-35 0 -58.5 -28t-23.5 -60q0 -135 4.5 -419t4.5 -417l75 -80v-264h-1102l-163 190v179q111 0 135 51q2 20 6 57l-14 815q-49 43 -131 144zM92 1464q25 -4 72 -24q39 -23 65 -66q12 -590 13 -889q0 -57 -2 -65q-4 -35 -33 -53 q-47 -31 -98 -31v-143h528v135q-25 4 -70 20q-53 31 -53 80v401h299v-399q0 -45 -45 -73.5t-90 -28.5v-135h539v131q-33 0 -78 26q-51 31 -52 68v948q0 37 34 62.5t75 25.5v145h-518v-141q20 -2 61 -20q63 -23 64 -70v-383h-291v356q0 55 45 95q23 20 78 20v143h-543v-135z M127 1485v84h471v-88q-43 0 -86 -49q-35 -41 -35 -89v-385h357v414q0 41 -45.5 76t-77.5 35v90h458v-86q-39 0 -78.5 -38t-39.5 -79v-452q-20 -2 -60 -11q-33 -16 -33 -45q0 -37 25 -75.5t37 -38.5q-25 -78 -76 -295q-29 141 -82 290q10 0 39 42t29 77q0 37 -29 49 q-20 8 -51 2q-43 -10 -51 -10q-23 0 -39 15q-8 2 -17 2q-16 0 -41.5 -10.5t-37.5 -10.5q-16 0 -33 14q-10 4 -23 5q-16 0 -46 -10.5t-42 -12.5q-44 19 -77 19q-17 0 -31 -5q-25 -14 -25 -57q0 -35 24.5 -73t41.5 -38q0 -8 -31 -116q-35 -119 -45 -172q-8 51 -45 172 q-35 111 -35 120q14 0 37.5 36t23.5 71q0 31 -2 35q-10 18 -46 18t-44 21q0 143 -2 440q0 33 -35 74q-49 45 -102 45zM309 1049q25 -29 72 -78q20 25 55 82q-25 80 -65 186q-25 -66 -62 -190zM702 1020h70v209q0 19 -25 19q-5 0 -12 -1q-33 -4 -33 -43v-184zM707 416 q0 -49 9 -49h1q49 10 57 51q4 23 4 203h-71v-205zM872 1055l76 -76q23 27 66 78q-25 68 -74 180q-6 -18 -68 -182z" />
<glyph unicode="i" horiz-adv-x="880" d="M61 1440v198h594l154 -151v-207q-18 -8 -55 -29q-49 -33 -49 -102v-821l112 -109q1 -20 1 -47.5t-1 -62.5q-2 -86 -2 -109q-269 -3 -442 -3q-87 0 -150 1l-153 164v200q70 0 98.5 27t28.5 94v815q-27 45 -136 142zM94 1450q61 0 80 -12.5t38 -25.5t19 -34v-897 q0 -94 -28 -112q-51 -35 -99 -35v-144h539v136q-45 0 -80 18q-45 20 -45 55v965q0 23 29 53q35 39 84 39v150h-537v-156zM121 1473v102h485v-92q-12 -4 -41 -17q-82 -35 -82 -84v-462q-70 0 -86 -23q-8 -8 -8 -20q-2 -8 0 -25q2 -20 2 -29q0 -25 58 -80q-53 -160 -80 -292 q-25 160 -76 292q53 57 53 80q0 -4 4 37q2 23 -6 37q-12 27 -90 27v454q0 45 -61 76q-37 18 -72 19zM301 1053q25 -35 76 -103q24 35 63 103q-18 76 -61 219q-27 -74 -78 -219z" />
<glyph unicode="j" horiz-adv-x="1177" d="M53 561q0 31 4 62q29 119 105 151q29 12 61 12q61 0 111 -34q135 -96 135 -232q0 -12 10 -6t10 14l3 752q0 16 -71 74.5t-71 64.5v219h600q63 -63 170 -165v-211q-113 0 -112 -48q0 -846 -7 -876q-51 -258 -274 -326q-51 -14 -102 -14q-158 0 -338 145q-233 190 -234 418 zM86 553q0 -137 84 -231q125 -141 326 -142q82 0 155.5 28t114.5 95q37 61 37 137v903q0 39 24 70q31 39 105 39q0 25 2 76v76h-537v-138q0 -4 33 -15t43 -21q35 -31 49 -82v-887q0 -45 -10 -58q-31 -49 -91 -49h-9q-49 14 -82 70q-16 27 14 49q35 51 35 117q0 43 -17 80 q-60 85 -128 85q-8 0 -17 -1q-66 -10 -102 -66q-29 -61 -29 -135zM428 1483v96h238q162 -2 235 -2v-92q-39 0 -100 -53q-35 -45 -35 -160v-348q0 -6 -23 -4q-29 4 -45 -5q-23 -8 -22 -55q0 -45 76 -110q-16 -61 -82 -279q-27 111 -74 279q61 72 61 110q0 57 -32 58 q-72 0 -72 10v426q0 43 -68 102q-14 14 -57 27zM604 1081q23 -41 66 -116q50 115 55 115v-1q-12 57 -55 164q-20 -57 -66 -162z" />
<glyph unicode="k" horiz-adv-x="1495" d="M66 1442v196h1134q63 -55 172 -168v-208q-123 0 -168 -37q-53 -59 -106 -154q-45 -82 -90 -162q2 2 2 -26q51 -80 147 -283q88 -186 158 -281q33 -33 65 -63q41 -39 41 -49v-207h-1179l-170 190v175q84 0 118 34q14 23 15 52q0 127 -2 414.5t-2 430.5q-47 49 -135 146z M98 1452q72 -4 109 -31q31 -33 31 -96l4 -903q0 -43 -37 -67.5t-99 -24.5v-137h543v145q-72 0 -108 47q-12 29 -13 59q0 47 39 115q57 94 62.5 112.5t19.5 18.5q20 0 31 -28q39 -80 119 -238q8 -25 0 -45q-16 -45 -105 -45v-141h537q0 117 -10 145q-86 4 -119 70 q-74 147 -219 448q-6 25 -29 69t-31 66q90 143 262 436q20 31 103 31v139h-481v-145q78 0 101 -30q13 -17 13 -33q0 -13 -8 -27q-88 -158 -276 -473l-17 8q-2 145 -8 432q0 18 4 68q27 55 154 55v150h-572v-150zM125 1485v92h512v-96q-115 0 -143 -68q-10 -27 -11 -49 q0 -147 6 -449q-33 0 -83 -26q0 -29 21.5 -55.5t41.5 -51.5q-27 -68 -63 -207q-2 -47 -17 -133q-8 -4 -14 21q0 182 -84 285q2 16 24.5 34.5t26.5 30.5q18 41 18 55t-8 28.5t-42 13.5t-42 16q4 307 4 452q0 37 -55 72q-47 29 -92 35zM309 1067q12 -16 76 -104q53 81 61 106 q-27 51 -65 166q-33 -76 -72 -168zM584 915q18 37 250 426q12 37 12 61q0 17 -6 28q-20 57 -103 57v88h414v-86q-43 0 -61 -23q-72 -84 -156 -231q-111 -195 -139 -240q-2 -20 13 -46.5t15 -39.5q-43 4 -59 -12q-14 -14 -13.5 -28.5t13.5 -30.5q43 -53 102 -76 q6 -20 6 -64.5t7 -64.5q4 -39 22 -88q18 -41 35 -82h-12q-49 78 -101 155q-61 90 -123 138q20 72 21 84q0 20 -10 37q-21 35 -67 35q-13 0 -28 -3q-8 0 -26 -2q-2 4 -6 8zM690 1053q-2 -6 8.5 -37t10.5 -41l77 67q6 39 31 125q-41 -39 -127 -114zM702 530q-2 -19 -2 -43 q0 -45 7 -110q6 -1 12 -1q22 0 35 13q4 14 4 29q0 27 -56 112z" />
<glyph unicode="l" horiz-adv-x="1269" d="M66 1421v217h616l172 -182q0 -27 4 -92q3 -38 3 -64q0 -13 -1 -24q-14 -12 -54 -17.5t-58 -21.5q-29 -27 -29 -84l2 -727q2 -4 6 -4t21 22q51 100 63 328h225q53 -51 160 -147v-621l-946 -2q-74 66 -176 199v184q117 0 139 64q1 84 1 188.5t-1 228.5q-2 340 -2 418 q-37 45 -145 137zM100 1452q33 -4 93 -18q57 -23 57 -64l-2 -932q-12 -51 -76 -71q-27 -16 -59 -17v-145h891v534h-162q-12 -154 -17 -176q-18 -96 -64 -153.5t-126 -57.5q-25 0 -49.5 9.5t-55.5 58.5l2 971q35 55 130 55v166h-562v-160zM127 1477v102h500v-100l-74 -25 q-59 -27 -59 -65q0 -84 2 -240v-236q-63 0 -76.5 -13t-13.5 -58q0 -23 22.5 -44.5t42.5 -39.5q-63 -182 -82 -287q-14 63 -29 129q-25 96 -51 156q63 59 64 84q0 53 -33 65q-20 12 -53 8q0 387 -2 444.5t-60 88.5q-39 31 -98 31zM317 1057q25 -31 66 -96q17 20 66 92 q-31 98 -62 172q-6 -18 -70 -168z" />
<glyph unicode="m" horiz-adv-x="1843" d="M90 1430v204h633l147 -153q10 -59 41 -174q20 61 78 327h582q6 -6 162 -180q2 -35 2 -84.5t-2 -114.5q-117 -14 -117 -71q0 -133 2 -417t2 -427q45 -57 127 -141v-199h-573q-35 37 -107 98v-98q-162 0 -193 2l-94 84q0 -14 2 -45t2 -41h-514q-45 55 -151 188v168 q15 -1 29 -1q112 0 112 59l2 854zM133 1448q61 0 88 -14q63 -35 64 -62q0 -166 4 -488.5t4 -477.5q0 -70 -133 -70v-146h438v148h-59q-33 4 -54 72q0 104 -8 340q-6 221 -6 342q0 117 4 219q4 4 12 -6q41 -205 238 -1115h172q76 381 229 1137h23q0 -55 4 -473q1 -97 1 -181 q0 -168 -3 -284q-2 -53 -127 -53v-148h532v134q-127 0 -126 69q0 158 -2.5 488.5t-2.5 484.5q0 59 78 76q20 4 47 4v158h-544q-39 -211 -152 -680q-49 231 -147 677h-574v-151zM168 1470v93h514q51 -215 139 -650l-8 -8q-33 -4 -41 -8q-23 -8 -31 -27q-1 -6 -1 -13 q0 -30 24 -58q10 -13 57 -54q-27 -207 -26 -262q-43 102 -125 269q16 29 35 92v8q0 34 -31 45q-8 6 -21 6q-6 0 -18 -2t-19 -2q-16 0 -24 14q-33 139 -98 459h-50v-295l-59 166q-20 -59 -72 -180v315q0 35 -51 63.5t-94 28.5zM317 752q53 49 52 88v5q0 35 -52 58v139 q23 -37 58 -104q27 31 71 125v-168q-8 2 -26.5 -5t-21.5 -17.5t-3 -20.5q1 -41 56 -115q-41 -88 -62 -297q-29 139 -72 312zM616 1063q31 -33 93 -113q29 56 43 99q-59 98 -68 112q-37 66 -47 101v-8q0 -53 -21 -191zM850 752q78 63 78 106q0 10 -2 21q-8 14 -43 24l28 119 q18 -29 52 -82q0 2 88 129q-8 -55 -31 -166q-20 -8 -41 -16t-26 -23.5t-5 -27.5q0 -43 39 -86q-72 -123 -106 -267q-4 90 -31 269zM911 1032q45 180 121 533h486v-84q-37 0 -80 -24.5t-43 -57.5v-484q-23 -6 -47.5 -12t-32.5 -29q-4 -12 -4 -22q0 -27 24 -59q20 -25 41 -52 q-43 -80 -76 -292q-8 61 -18 112q-27 125 -63 182q55 47 55 111q0 16 -4 31q-17 28 -80 28h-4q-8 6 -12 17q0 362 -3 434h-61l-59 -287q-8 37 -33 164q-31 -74 -107 -209zM1227 1057q23 -33 59 -103q25 35 64 105q-18 55 -60 166q-18 -57 -63 -168z" />
<glyph unicode="n" horiz-adv-x="1392" d="M63 1421v213h521q29 -35 88 -94v96h491q84 -68 162 -157v-197q-51 0 -87 -34t-36 -60q0 -66 17 -1188h-301q-63 59 -185 178v-178h-483q-154 139 -184 182v176q25 0 69 11q20 4 41 25.5t21 37.5v850zM94 1450q55 0 72 -12q57 -31 57 -80l2 -922q0 -49 -53 -86 q-32 -22 -65 -22h-3q2 -23 2 -133h441v143q-39 0 -66 14q-59 31 -59 103v708l352 -973h262q0 268 -8 820q-2 86 -2 155q0 161 10 234q25 37 117 55v150h-434v-146q37 0 71.5 -16.5t34.5 -42.5v-537l-264 744h-467v-156zM131 1487v92q336 0 401 -2q82 -219 236 -657 q-4 -16 -20 -17q-4 0 -15 2h-14q-18 0 -23 -18q-1 -7 -1 -13q0 -57 93 -120q-2 -28 -2 -58q0 -108 23 -243q-27 63 -53 116q-68 125 -131 176q39 49 39 91q0 25 -13 43q-20 25 -66 25q-15 0 -34 -3q-49 123 -154 389q1 -88 1 -159q0 -143 -3 -220q-4 -2 -29.5 -9t-31.5 -23 q-1 -10 -1 -19q0 -60 54 -115q-49 -186 -53 -288l-64 291q0 12 16.5 27.5t20.5 23.5q6 23 6 42q0 22 -8 40q-6 8 -28.5 14t-22.5 16v142q27 -33 72 -105q4 6 51 94q-8 41 -47 183l-78 -164v332q0 29 -44 61.5t-77 32.5zM541 1055q39 -31 108 -99q27 55 33 88 q-43 59 -127 173q-4 -53 -14 -162zM606 356q0 -8 92 -90q-18 68 -92 275v-185zM752 1485v92q367 0 366 0v-90q-43 0 -88 -39q-25 -23 -33 -66v-317q-23 51 -69 149l-68 -151v340q0 29 -38 55.5t-70 26.5zM860 909v142q27 -33 74 -95q4 6 63 99v-150q-49 0 -36 2 q-23 -4 -27 -26q2 -33 61 -138q-20 -74 -53 -278q-23 100 -78 285q20 20 51 75q6 25 0 49q-6 27 -26 27q-27 0 -29 8z" />
<glyph unicode="o" horiz-adv-x="1208" d="M51 872q0 154 31 324q27 143 126 267t234 163q51 14 103 14q162 0 276 -122q87 -93 187 -279q133 -244 133 -553q0 -324 -156 -530q-117 -156 -278 -156q-25 0 -50 4q-115 4 -233 96q-68 53 -184 185q-188 211 -189 587zM80 877q0 -352 176 -543q137 -150 322 -150 q61 0 120 21q96 33 160 137q33 52 88 197q41 197 41 372q0 285 -108 469q-72 125 -174 191q-68 43 -160 43q-74 0 -139 -27q-127 -53 -209 -180q-74 -113 -95 -256q-22 -144 -22 -264v-10zM111 940v11q0 208 75 368q90 188 269 258q37 10 71 10q168 0 303 -186 q68 -92 97 -230q16 -79 28 -253q-8 -8 -26 -7h-35q-45 -4 -51 -45q-1 -3 -1 -6q0 -36 60 -96q0 -14 -15.5 -33.5t-18.5 -28t-38 -122.5q-25 -74 -65 -109l-4 4q27 72 26 141q0 82 -36 136q25 27 61 86q1 10 1 19q0 45 -34 56q-16 6 -45 5q-27 0 -26 -7q-4 143 -9 289 q-14 168 -94 250q-41 29 -72 29q-14 0 -26 -6q-78 -39 -111 -140q-20 -90 -39 -182q-4 -31 -4 -84v-53q0 -70 -6 -103q-29 6 -48 6q-15 0 -22 -4q-20 -10 -20 -39q0 -16 6 -36q4 -12 26.5 -39t22.5 -41q0 -16 -20 -31q-18 -41 -19 -92q0 -78 39 -164h-10q-74 88 -111 244 q-2 6 -14 18t-12 21q0 4 4 8q57 51 57 98q0 14 -4 29q-10 20 -40.5 25.5t-59.5 9.5q-6 2 -10 16zM174 1069q25 -31 66 -96q26 29 69 84q-37 90 -43 184q-29 -57 -92 -172zM385 821q0 203 8 293q16 164 66 277q23 49 73 49q66 0 105 -101q27 -71 31 -149q8 -213 8 -301 q0 -272 -49 -447q-23 -82 -95 -82q-27 0 -47 19q-68 76 -88 207q-12 74 -12 235zM569 895q-1 -52 -1 -96q0 -88 3 -144q6 -119 25 -159q14 -14 14 -15q18 4 31 183q10 164 10 350q0 152 -8 213q-3 27 -21 27q-3 0 -6 -1q-43 -18 -43 -120q0 -20 -4 -238zM760 1051 q18 -16 37 -50q25 -43 28 -49q18 25 38 53.5t22 51.5q-31 55 -86 180q-6 -61 -39 -186z" />
<glyph unicode="p" horiz-adv-x="1290" d="M61 1448v190h678q156 0 297 -143q123 -125 174 -289q20 -63 21 -133q0 -162 -96 -285q-122 -159 -443 -159h-4v-275l141 -170v-184h-587q-53 59 -174 195q0 162 0 161q45 0 93 17.5t48 46.5v868q-123 135 -148 160zM90 1458q63 0 102 -24.5t39 -57.5v-973q0 -29 -49 -53 t-82 -24v-129h547v110q0 12 -26 21q-41 10 -48 14q-61 35 -61 72v403q213 0 205 0q121 6 190 45q90 51 141.5 143.5t51.5 196.5q0 221 -205 363q-20 14 -74.5 30.5t-83.5 16.5h-647v-154zM125 1491v94h514q131 0 192 -22q84 -31 148 -108t78 -167q6 -39 6 -76 q0 -188 -141 -292q-12 -6 -41 -6.5t-43 -8.5q-12 4 -27 4q-14 0 -41 -5t-41 -5q-18 0 -30.5 4t-22.5 4q-14 0 -43 -7t-41 -7q-23 0 -39 12q-20 -14 -53 -8q-53 10 -58 10q-23 0 -39 -14q-8 -10 -6 -29q4 -37 4 -30q23 -33 60 -103q-37 -139 -84 -303q-20 84 -82 307 q60 98 60 138q0 6 -1 10q-8 20 -43 26q-27 6 -53 11v460q0 47 -49 82q-43 29 -84 29zM301 1055l78 -115q37 76 70 115q-47 86 -78 225q-18 -80 -70 -225zM487 956q154 0 181 5q94 16 135 94q37 68 37 159q0 117 -58 193q-66 74 -166 74q-39 0 -75 -15q-53 -29 -54 -84v-426z M520 983v399q0 39 47 60q18 4 39 4q109 0 172 -103q31 -72 31 -155q0 -72 -28.5 -129.5t-114.5 -71.5q-25 -4 -146 -4zM690 1024q39 0 68 63q24 56 24 117q0 63 -22 64q-68 0 -70 -86v-158zM866 1200q12 -39 21 -106q10 -82 12 -95q70 125 119 197q4 5 4 10.5t-4 12.5 q-33 55 -94 174q-27 -80 -58 -193z" />
<glyph unicode="q" horiz-adv-x="1392" d="M61 920q0 381 185 593q109 125 289 125q63 0 127 -18q236 -98 382 -383q121 -231 121 -432q0 -45 -6 -90v-6q0 -42 -26 -117q10 0 42.5 -2t47.5 -2q35 -39 112 -107q8 -6 11 -47q1 -8 1 -18q0 -25 -4 -66q-2 -64 -2 -78q-41 -193 -143 -254q-35 -16 -80 -16 q-59 0 -106 25q-4 2 -78 84q-94 -111 -221 -111q-33 0 -66 8q-213 57 -377 252t-190 408q-18 135 -19 252zM84 911q0 -250 80 -424q57 -123 160 -204q113 -88 235 -90q109 8 258 122q97 -118 181 -118h1q55 0 101 30q59 51 80 133q15 59 15 107q0 44 -13 80q-18 0 -58 2h-57 q-12 -82 -68 -94q-10 -2 -18 -2q-26 0 -41 18q-18 14 -18 41v-3q2 0 14 73q47 168 47 346q0 301 -127 508q-115 184 -321 184q-47 0 -93 -12q-160 -41 -252 -203q-76 -131 -96 -313q-10 -92 -10 -181zM119 936q18 209 53 324q55 170 176 266q86 55 199 55q156 0 233 -106 q163 -222 163 -502q0 -25 -1 -51q-31 -6 -61 -11q-37 -8 -43 -41q-1 -4 -1 -8q0 -41 58 -104q-49 -74 -96 -234q-2 -2 -4 0t0 4q2 19 2 38q0 106 -58 192q6 10 41 41q25 25 27 49q1 7 1 13q0 33 -34 46q-6 2 -37 0q-18 0 -22 17q-8 276 -13 305q-25 168 -127 252 q-28 16 -50 16q-17 0 -29 -10q-61 -37 -99 -131q-29 -68 -30 -125q-12 -229 -13 -313q-29 0 -57 -3q-35 -4 -43 -30q-2 -10 -2 -19q0 -59 74 -106q-33 -160 -33 -205q0 -35 8 -66q-18 31 -57 132q-35 86 -70 129q20 20 47 67q10 15 10 31t-10 31q-24 36 -73 36q-10 0 -21 -2 q-4 6 -8 23zM174 1049q25 -33 68 -97q28 35 65 109q-18 31 -24 106q-8 86 -15 107q-51 -133 -94 -225zM387 799q0 74 6 202q8 143 10 201q2 72 29 150q37 104 98 104q63 0 103 -108q47 -137 47 -349q0 -51 -4 -178q-3 -78 -3 -132q0 -27 1 -48q-12 -82 -25 -164 q-23 -88 -86 -127q-10 -2 -20 -2q-53 0 -84 64q-72 150 -72 387zM571 768q4 -219 31 -279l14 -14q37 6 37 496q0 184 -10 256q-4 31 -27 26q-43 -18 -43 -120q0 -389 -1 -389t-1 24zM760 1061q2 -20 74 -103q22 35 51 105q-33 100 -101 244q-6 -82 -24 -246z" />
<glyph unicode="r" horiz-adv-x="1433" d="M29 1448v180h602q51 0 186 -22q55 -14 131 -68q281 -195 281 -422q0 -102 -53.5 -194.5t-143.5 -133.5q-16 -6 -4 -18q72 -68 125 -172l82 -188q49 -41 141 -125q8 -20 8 -43q0 -18 -34 -129q-74 -125 -192 -125q-14 0 -28 2q-92 12 -180 92q-43 39 -137 156 q-61 98 -86 352q-2 18 -25 43q-25 4 -28 -21q0 -180 4 -268q57 -57 133 -147q-2 -23 -2 -193h-295q-199 -2 -289 -2q-59 57 -176 170v172q14 10 57.5 19.5t61.5 27.5q12 16 25 49q0 84 -17 844q-45 55 -147 164zM57 1452q29 -2 90 -16q47 -23 60 -78q4 -20 4 -103 q0 -106 6 -424q4 -157 4 -275q0 -79 -2 -140q-33 -72 -139 -88q-1 -36 -1 -64q0 -55 5 -74q440 0 526 3q13 7 13 111v15q0 25 -29 25q-41 0 -43 2q-55 16 -66 76q-2 127 -8 385q4 6 10 16q17 4 39 4q41 0 101 -12q102 -35 125 -151q12 -100 24 -199q16 -119 55 -189 q47 -84 183 -92q143 6 200 133q3 6 3 12.5t-3 12.5q-8 10 -22 6q-70 0 -102 72q-23 61 -46 125q-37 129 -75 194q-59 102 -156 138q-10 4 -8 12q4 8 12 12q104 45 169 131t65 195q0 106 -52 192q-47 78 -137 128t-172 50h-633v-145zM96 1481v85h566q57 0 116 -18 q121 -37 197 -143q49 -70 49 -168q0 -88 -41 -160q-33 -57 -102 -102q-61 -35 -123 -72q-8 1 -18 1q-20 0 -48 -5q-47 -12 -63 -12q-27 0 -49 16q-16 2 -44 -7t-40 -9q-37 16 -69 16q-20 0 -38 -6q-27 -7 -27 -35q0 -15 7 -35q4 -20 24 -41q27 -27 33 -36q-12 -31 -39 -93 q-14 -35 -29 -176q-10 -2 -12 13q0 23 -2 24q-10 127 -72 211q4 10 35 49q23 31 23 56q2 9 2 17q0 34 -35 46q-6 4 -28.5 3t-26.5 13q1 43 1 99.5t-1 126.5q-2 174 -2 223q0 70 -76 102q-29 12 -68 17zM291 1040q20 -29 65 -75q17 26 56 69q-12 57 -26.5 112.5t-43.5 92.5 q-16 -70 -51 -199zM461 940h133q78 8 119 43q68 49 88 174q4 27 4 53q0 178 -139 248q-28 14 -65 14t-81 -14q-59 -18 -59 -76v-442zM494 971v393q0 31 36.5 51.5t69.5 20.5q63 0 109 -47q72 -76 71 -187q1 -70 -30 -129q-37 -59 -138 -100q-39 -2 -118 -2zM666 1018 q78 59 77 168q1 68 -26 80q-12 6 -33 6q-18 0 -18 -21q1 -36 1 -94.5t-1 -138.5zM786 805q23 0 80 -76q91 -113 105 -129q0 -133 -29 -213q-31 113 -125 193q20 29 21 69q0 70 -52 156zM836 1206q16 -27 20 -70.5t8 -82.5q35 41 73 84.5t38 70.5q-25 59 -86 174 q-12 -47 -53 -176z" />
<glyph unicode="s" horiz-adv-x="1085" d="M51 201v571q37 0 123 2h127q61 -63 148 -137q0 -160 57 -246q9 -18 27.5 -18.5t46.5 18.5q25 16 25 53q0 22 -9 52q-35 88 -137 182q-90 78 -178 156q-203 195 -203 444q0 88 31 170q29 76 105.5 131t145.5 55q59 0 135 -29.5t78 -29.5q18 0 42 29.5t26 29.5h158 q53 -43 166 -164v-596l-213 3q-57 68 -146 184q0 74 -20 162q-14 25 -47 10q-14 -23 -15 -47q0 -12 39 -119q51 -80 195 -240q137 -156 192 -241q86 -143 86 -284q0 -225 -149 -282q-55 -22 -118 -22h-5q-127 0 -236 70q-25 6 -43 -14.5t-18 -41.5h-238q-47 37 -178 189z M88 201q127 0 174 -2q0 31 20.5 56.5t45.5 25.5q12 0 22 -7q111 -73 237 -73h3q92 0 166 41q108 79 108 240q0 63 -16 120q-49 125 -184 272q-117 121 -234 244q-108 122 -108 204q0 28 9 54.5t43 45t54 12.5q78 -25 135.5 -96.5t67.5 -153.5q6 -16 8 -63.5t14 -67.5h119 v555h-110q-8 0 -24.5 -27t-33.5 -33q-6 -1 -13 -1q-41 0 -107 33q-62 31 -106 31q-9 0 -18 -1q-133 -25 -200 -125q-51 -78 -51 -185q0 -131 69 -270q51 -104 223 -256.5t224 -253.5q14 -39 14 -74q0 -51 -31 -79q-20 -20 -59 -21q-35 0 -78 16q-102 57 -158.5 159 t-56.5 216h-168v-536zM133 1272q0 80 33 153q29 63 82 107q61 49 131 49q33 0 104.5 -31.5t104.5 -31.5q53 0 80 65h71q0 -82 2 -248v-248h-77q-8 18 -11 56q-2 47 -4 55q-29 168 -162 246q-33 18 -75 18q-49 0 -74 -28q-41 -39 -41 -109q0 -27 6 -55q35 -84 123 -185 q78 -84 154 -167q-8 -6 -41 -7q-25 2 -35 -18q-2 -5 -2 -9q0 -24 45 -48q18 -10 119 -35v-5q0 -70 52 -197q54 -132 54 -146q0 -13 -8 -13q-74 176 -180 240q-18 12 -58 33q0 115 -129 192q-18 6 -49 2q-37 -6 -51 -4q-164 174 -164 369zM244 1176q10 -31 14 -82 q4 -66 8 -84q43 -8 121 -54q4 1 4 5q-4 39 -24 112q-37 27 -123 103z" />
<glyph unicode="t" horiz-adv-x="1300" d="M55 1636h989q66 -57 187 -176q0 -98 2 -303v-297h-201l-129 90v-590q51 -49 144 -147v-211h-613q-55 55 -160 162v207q125 0 125 98v383h-170q-80 92 -172 201v293q-2 199 -2 290zM102 1049h162v96q4 121 8 149q10 84 50 136q18 18 43 18q29 0 51 -22.5t22 -59.5v-942 q-8 -41 -47 -65.5t-82 -24.5v-139h541v127q-68 0 -109 36q-33 31 -32 64l2 883q0 133 63 133q31 0 54.5 -34t23.5 -83v-274h176v559h-926v-557zM129 1073v506h864v-506h-112v248q0 66 -32 104.5t-73 38.5q-88 0 -88 -135q0 -412 0 -411q-10 -6 -53 -9q-33 -2 -41 -28 q-1 -5 -1 -10q0 -43 58 -115q-35 -139 -80 -295q-31 190 -86 299q61 55 62 100q0 12 -4 25q-10 20 -46 23t-36 20v471q0 29 -32 51.5t-67 22.5q-23 0 -36 -11q-59 -49 -74 -137q-8 -41 -8 -162v-90h-115zM502 1044q25 -35 65 -100q29 35 74 105q-25 37 -70 182 q-31 -74 -69 -187z" />
<glyph unicode="u" horiz-adv-x="1341" d="M61 1423v213h1045q115 -103 170 -166q0 -174 -4 -200q-41 0 -74 -29t-33 -78l2 -770q0 -98 -55 -200q-63 -117 -164 -160q-80 -35 -172 -35q-188 0 -352 119q-236 203 -236 379l-2 778q-31 51 -125 149zM94 1470q47 0 85 -27.5t38 -70.5v-868q0 -74 50 -144.5t122 -113.5 q106 -63 254 -64q135 0 234 58q86 66 104 206q2 154 2 922q0 33 34.5 58.5t69.5 25.5v150h-417v-152q127 0 129 -76q4 -155 4 -442q0 -192 -2 -443q0 -55 -62 -100q-35 -20 -82 -20q-59 0 -102 30q-33 27 -47 101l-2 884q0 66 123 66v152h-535v-132zM131 1493v78h467v-86 q-45 0 -87 -31t-42 -70q0 -66 -2 -217t-2 -266q-10 -6 -51 0q-31 4 -39 -22q-4 -10 -4 -21q0 -35 80 -115q-68 -59 -86 -264q-27 137 -91 269q59 23 60 61q11 18 11 36q0 22 -15 44q-10 10 -44 11t-34 18v241q-2 162 -2 240q0 39 -40 66.5t-79 27.5zM276 1055q20 -39 82 -97 q33 38 74 101q-31 55 -74 194q-25 -76 -82 -198zM686 453q8 -33 29 -33h2q51 14 51 82v729q0 33 -33 22q-35 -10 -47 -63q0 -248 -2 -737zM696 1485v90h353v-94q-33 0 -66 -27t-33 -59v-310q-2 8 -61 189q-25 -104 -58 -197v299q0 45 -44 77t-91 32zM831 907v162 q18 -45 64 -115q10 10 28.5 64.5t26.5 60.5v-176q-45 -16 -43 -39q-4 -27 11.5 -53.5t29.5 -50.5q-33 -115 -51 -291q-2 -6 -4 -10q1 8 1 17q0 96 -58 280q0 4 14 22.5t18 28.5q10 32 10 53q0 16 -6 25q-41 8 -41 22z" />
<glyph unicode="v" horiz-adv-x="1382" d="M63 1411v223h1076q61 -55 176 -164q6 -51 6 -108q0 -58 -6 -107q-45 -4 -101 -26q-115 -455 -321 -1227h-246q-55 63 -168 180q-55 207 -129 539q-100 449 -123 545q-82 66 -164 145zM96 1452q102 0 137 -92q82 -362 277 -1165h207q51 221 289 1153q24 98 124 98v160 h-423v-154q109 0 108 -92q-41 -176 -151 -555q-45 184 -123 563q-1 8 -1 16q0 70 119 70v158h-563v-160zM131 1481v92h500v-88q-47 0 -90 -36q-38 -32 -38 -75q0 -6 1 -12q10 -70 45 -225q39 -162 49 -236h-14q-54 0 -68 -29q-2 -8 -2 -16q0 -32 27 -57q6 -6 65 -51 q-4 -98 -22 -289q-43 92 -142 276q2 10 25 56q18 35 18 57q0 18 -10 37q-16 14 -45 17t-55 5q-31 154 -103 457q-45 117 -141 117zM383 1044q45 -51 98 -98q16 33 49 94q-88 152 -122 220q-6 -74 -25 -216zM692 762q66 29 76 65q3 9 3 18q0 32 -34 60q10 43 31 125 q16 -31 31 -92q32 48 98 109q-10 -55 -41 -146q-8 -10 -43 -14q-12 -20 -12 -45q0 -23 24 -94q-98 -201 -129 -291q0 100 -4 305zM741 1485v86h355v-88q-41 0 -82 -51q-33 -41 -45 -86q-29 -127 -72 -293q0 82 -6 225q-37 -88 -123 -242l84 344q0 47 -34 76t-77 29z" />
<glyph unicode="w" horiz-adv-x="1914" d="M92 1436v198h576q31 -25 88 -67q14 39 20 67h289q27 -20 76 -59l12 59h485q10 -10 183 -200v-174q-129 0 -146 -89q-78 -391 -225 -1169q-45 0 -145 2h-148q-47 45 -139 143l-49 144l-88 -287h-236q-96 100 -174 186q-111 528 -209 1063q-31 37 -170 183zM123 1448 q47 0 88 -23q45 -29 55 -73q82 -358 240 -1159h209q43 213 131 638q4 17 4 29q0 28 -19 35q-31 10 -48 -10.5t-17 -44.5q0 -18 31 -95q-47 -117 -129 -288q-2 28 -2 67t2 88q6 121 6 154q43 25 59 104q4 16 -16.5 25.5t-24.5 13.5q0 25 139 666h175q51 -223 143 -670 q-12 -8 -33 -6q-27 2 -33 0q-18 -4 -26 -39v-9q0 -70 92 -108q-6 -35 -29 -297q-43 70 -145 299q47 55 47 93q-2 23 -6 32q-6 18 -21 25q-49 10 -61 4q-37 -12 -37 -47q0 -8 2 -16q47 -246 64 -326q37 -180 75 -320h211q25 104 111 539q88 444 117 619q6 39 46 76.5t89 37.5 v144h-432v-142q56 0 84 -28q23 -23 23 -52q0 -7 -1 -14q-20 -152 -100 -475q-47 215 -154 711h-223l-162 -725q-37 168 -92 505v6q0 31 37 48q33 14 70 14v152h-539v-158zM166 1485v90h463v-92q-37 0 -70 -25q-37 -24 -37 -56q0 -58 33 -233q41 -209 47 -251 q-35 -10 -43 -13q-23 -10 -31 -26q-7 -13 -7 -26q0 -19 14 -40q8 -12 73 -72q-10 -57 -12 -157q-6 -106 -8 -129q-55 139 -135 280q43 59 43 107q0 23 -11 41q-18 23 -48 23q-16 0 -36 -7q0 4 -5 4t-5 2q-31 158 -96 471q-10 47 -49 78t-80 31zM399 1051q33 -33 93 -101 q24 29 51 99q-35 66 -105 190q-12 -63 -39 -188zM737 1038q12 -29 45 -80q25 27 74 76v12q0 58 -16 189q-33 -72 -103 -197zM942 1036q27 -33 80 -90q22 32 49 98q-39 49 -106 193q-10 -66 -23 -201zM1196 731q4 10 49 60q31 37 31 65q0 14 -6 31q-12 10 -25.5 20.5 t-13.5 22.5q0 8 4 18q47 221 82 412q2 10 2 20q1 37 -23 68q-30 39 -86 39v86h369v-84q-33 0 -77 -44t-52 -91q-25 -150 -86 -447q-29 -8 -41 -16q-23 -14 -25 -37q-2 -8 -2 -16q0 -18 11.5 -47t13.5 -39q-35 -100 -117 -301q0 94 -8 280zM1280 1061q0 -45 25 -107 q34 48 61 97q-6 45 -20 133q-20 -41 -66 -123z" />
<glyph unicode="x" horiz-adv-x="1443" d="M63 188v179q86 0 134 51q92 135 258 438q-6 25 -101 223q-29 63 -88 185q-66 55 -186 172v198h1096q61 -57 174 -178l6 -172q-10 -6 -37 -5t-37 -3h-3q-63 0 -117 -94q-56 -96 -169 -281q49 -127 137 -309q147 -303 148 -303q31 -29 96 -94v-189h-1143q-119 115 -168 182 zM106 203h449v137q-45 0 -80 14q-41 18 -41 47q0 16 12 35q37 61 111 182q10 25 27 25q10 0 18 -12q35 -70 103 -213q6 -14 6 -27q0 -53 -99 -53v-135h518v143q-74 0 -120 80q-88 184 -250 528q135 238 295 473q26 39 92 39v133h-442v-141q45 0 73.5 -20.5t28.5 -46.5 q0 -10 -4 -19q-39 -68 -137 -223q-8 16 -105 231q-4 8 -4 17q0 27 32 44t66 17v141h-534v-151q35 0 71.5 -19.5t49.5 -39.5q53 -94 127 -259q88 -195 123 -260q4 -4 4 -26q-98 -168 -142 -240q-82 -133 -153 -233q-27 -45 -95 -45v-123zM145 1483v90h482v-88q-31 1 -69 -27 q-33 -24 -33 -51q0 -4 1 -8q18 -109 136 -305q86 131 165 270q4 12 4 25q0 35 -33.5 64.5t-70.5 29.5v88h399v-78q-61 0 -102 -61q-84 -137 -231 -373q-18 0 -13 16q0 23 25 129q-76 -88 -133 -139q2 -45 16 -123q8 25 45 62q57 49 58 51q0 -3 -31 -51q-26 -41 -26 -55 q0 -3 1 -5q0 -6 8.5 -19.5t6.5 -21.5q-20 2 -41 2q-27 0 -31 -24q0 -68 125 -121q4 -57 10 -109q14 -121 37 -184q-68 92 -213 260q-4 6 -4 16q0 8 7 32t5 38q4 33 -16 53q-18 -18 -21 -55q2 -33 2 -63q2 -10 -4 -29q-78 -51 -229 -252q35 102 96 309q31 18 62.5 39t44.5 51 q6 27 -21 41q-8 4 -29 -2q-16 -6 -24 4q-74 158 -221 473q-47 100 -140 101zM475 1231q0 -10 6 -96q3 -25 3 -47q0 -29 -5 -50q74 -61 127 -82q21 93 21 111q-59 70 -152 164z" />
<glyph unicode="y" horiz-adv-x="1474" d="M68 1419v215h1155q16 -12 172 -155q10 -71 10 -129q0 -44 -6 -80q-2 -2 -15 -8q-43 -6 -86 -15q-51 -8 -67 -43q-25 -49 -225 -540v-322q45 -41 122 -125v-217h-602q-57 53 -176 190v191q141 0 142 94v-2q-1 0 -7 305q-33 90 -100 234q-82 176 -104 231q-4 8 -19.5 7 t-19.5 3q-10 8 -174 166zM102 1452q104 0 166 -78l254 -592q4 -53 4 -299q0 -133 -133 -133v-151h535v129q-49 0 -86 22q-43 27 -43 74v332q82 201 243 606q37 92 158 92v145h-457q-2 -25 -2 -145q37 0 70 -16q41 -18 41 -49q0 -10 -4 -21q-41 -109 -139 -317 q-47 102 -131 311q-4 14 -5 24q0 70 111 70v148h-582v-152zM135 1479v96h524v-92q-49 0 -81.5 -31t-32.5 -70q0 -16 6 -30q47 -119 156 -353q66 106 167 373q4 12 5 25q0 35 -37 59.5t-76 24.5v94h401v-92q-102 0 -137 -86q-59 -147 -194 -498q-16 -2 -48 2q-39 4 -51 4 q-45 0 -63 -33q8 -84 69 -124q-25 -59 -51 -166q-16 -63 -30 -129q-29 104 -84 292q20 27 43.5 55.5t23.5 53.5q0 14 -8 31q-18 20 -51 20q-8 0 -25.5 -2t-25.5 -2q-23 0 -37 10q-63 162 -203 482q-59 86 -160 86zM479 1221l6 -193q29 -23 99 -94q18 34 47 102 q-39 41 -152 185zM770 1040q-1 -18 -1 -32q0 -28 3 -41q33 29 94 82q1 -1 19 159q-8 -12 -115 -168z" />
<glyph unicode="z" horiz-adv-x="1208" d="M53 199q166 391 262 661h-94q-57 57 -153 170v604h915q43 -45 123 -131q-96 -248 -281 -735h160q104 -90 162 -160v-583l-959 -2zM92 205h877q1 120 1 219q0 197 -3 309h-176q-4 -207 -123 -327q-53 -53 -107 -54q-72 0 -72 64q0 12 5 24q139 358 444 1162h-840v-539h174 q0 90 21 156q35 113 59 153q43 74 111 74q69 0 69 -80q0 -20 -6 -37q-127 -348 -434 -1124zM129 1104v471h754q-74 -215 -232 -645q-8 -20 -35 -21q-6 0 -20 2h-23q-31 0 -43 -20.5t-12 -50.5q0 -49 23 -103q-25 -55 -90 -137q-72 -92 -97 -135q12 285 13 287q47 20 69 34 q43 27 47 56q1 8 1 15q0 39 -38 50q-43 -8 -43 15q0 6 7 14q53 131 151 418q4 12 4 22q0 41 -34.5 71t-73.5 30q-104 0 -164 -148q-49 -123 -49 -225h-115zM518 1061q6 -29 14 -88q39 25 117 82q0 23 -12 153q-35 -49 -119 -147z" />
<glyph unicode="&#xa6;" horiz-adv-x="1024" d="M51 162v921h922v-921h-922zM133 244h760v760h-760v-760z" />
<glyph unicode="&#xad;" d="M90 985q-6 47 6 59q125 -14 283 -14q160 0 194 17q154 -150 230 -232q2 -12 2 -24q0 -47 -51 -111q22 -55 53 -170q0 -2 -3 -3t-3 -3q-117 33 -234 33q-127 0 -227 -39q-6 2 -23 0q-74 82 -215 252q-4 8 -4 18q0 14 11.5 40t13.5 38q-12 18 -12 47v20q2 14 2 21 q0 33 -23 51zM137 784h129q-41 53 -41 84h-75q-2 -27 -13 -84zM139 965q12 -55 11 -72h71q0 35 23 72h-105zM174 997q-4 -10 2 -15t174 -5q172 -2 180 4q12 12 -4 27q-102 -16 -340 2q-10 -2 -12 -13zM209 760q0 -10 8 -19q102 25 303 0q12 23 6 25q-45 14 -159 12 q-119 -2 -158 -18zM260 879q0 -37 26.5 -62.5t63.5 -25.5t63.5 25.5t26.5 62.5t-26.5 63.5t-63.5 26.5t-63.5 -27t-26.5 -63zM289 881q0 61 61 61q62 0 62 -61t-62 -62q-61 0 -61 62zM324 879q0 -25 26 -25q27 0 27 25q0 27 -27 26q-27 0 -26 -26zM451 793q-5 -1 110 -9v84 h-82q0 -27 -28 -75zM451 965q33 -47 32 -70h76v70h-108z" />
<glyph unicode="&#x2000;" horiz-adv-x="828" />
<glyph unicode="&#x2001;" horiz-adv-x="1657" />
<glyph unicode="&#x2002;" horiz-adv-x="828" />
<glyph unicode="&#x2003;" horiz-adv-x="1657" />
<glyph unicode="&#x2004;" horiz-adv-x="552" />
<glyph unicode="&#x2005;" horiz-adv-x="414" />
<glyph unicode="&#x2006;" horiz-adv-x="276" />
<glyph unicode="&#x2007;" horiz-adv-x="276" />
<glyph unicode="&#x2008;" horiz-adv-x="207" />
<glyph unicode="&#x2009;" horiz-adv-x="331" />
<glyph unicode="&#x200a;" horiz-adv-x="92" />
<glyph unicode="&#x2010;" d="M90 985q-6 47 6 59q125 -14 283 -14q160 0 194 17q154 -150 230 -232q2 -12 2 -24q0 -47 -51 -111q22 -55 53 -170q0 -2 -3 -3t-3 -3q-117 33 -234 33q-127 0 -227 -39q-6 2 -23 0q-74 82 -215 252q-4 8 -4 18q0 14 11.5 40t13.5 38q-12 18 -12 47v20q2 14 2 21 q0 33 -23 51zM137 784h129q-41 53 -41 84h-75q-2 -27 -13 -84zM139 965q12 -55 11 -72h71q0 35 23 72h-105zM174 997q-4 -10 2 -15t174 -5q172 -2 180 4q12 12 -4 27q-102 -16 -340 2q-10 -2 -12 -13zM209 760q0 -10 8 -19q102 25 303 0q12 23 6 25q-45 14 -159 12 q-119 -2 -158 -18zM260 879q0 -37 26.5 -62.5t63.5 -25.5t63.5 25.5t26.5 62.5t-26.5 63.5t-63.5 26.5t-63.5 -27t-26.5 -63zM289 881q0 61 61 61q62 0 62 -61t-62 -62q-61 0 -61 62zM324 879q0 -25 26 -25q27 0 27 25q0 27 -27 26q-27 0 -26 -26zM451 793q-5 -1 110 -9v84 h-82q0 -27 -28 -75zM451 965q33 -47 32 -70h76v70h-108z" />
<glyph unicode="&#x2011;" d="M90 985q-6 47 6 59q125 -14 283 -14q160 0 194 17q154 -150 230 -232q2 -12 2 -24q0 -47 -51 -111q22 -55 53 -170q0 -2 -3 -3t-3 -3q-117 33 -234 33q-127 0 -227 -39q-6 2 -23 0q-74 82 -215 252q-4 8 -4 18q0 14 11.5 40t13.5 38q-12 18 -12 47v20q2 14 2 21 q0 33 -23 51zM137 784h129q-41 53 -41 84h-75q-2 -27 -13 -84zM139 965q12 -55 11 -72h71q0 35 23 72h-105zM174 997q-4 -10 2 -15t174 -5q172 -2 180 4q12 12 -4 27q-102 -16 -340 2q-10 -2 -12 -13zM209 760q0 -10 8 -19q102 25 303 0q12 23 6 25q-45 14 -159 12 q-119 -2 -158 -18zM260 879q0 -37 26.5 -62.5t63.5 -25.5t63.5 25.5t26.5 62.5t-26.5 63.5t-63.5 26.5t-63.5 -27t-26.5 -63zM289 881q0 61 61 61q62 0 62 -61t-62 -62q-61 0 -61 62zM324 879q0 -25 26 -25q27 0 27 25q0 27 -27 26q-27 0 -26 -26zM451 793q-5 -1 110 -9v84 h-82q0 -27 -28 -75zM451 965q33 -47 32 -70h76v70h-108z" />
<glyph unicode="&#x2012;" d="M90 985q-6 47 6 59q125 -14 283 -14q160 0 194 17q154 -150 230 -232q2 -12 2 -24q0 -47 -51 -111q22 -55 53 -170q0 -2 -3 -3t-3 -3q-117 33 -234 33q-127 0 -227 -39q-6 2 -23 0q-74 82 -215 252q-4 8 -4 18q0 14 11.5 40t13.5 38q-12 18 -12 47v20q2 14 2 21 q0 33 -23 51zM137 784h129q-41 53 -41 84h-75q-2 -27 -13 -84zM139 965q12 -55 11 -72h71q0 35 23 72h-105zM174 997q-4 -10 2 -15t174 -5q172 -2 180 4q12 12 -4 27q-102 -16 -340 2q-10 -2 -12 -13zM209 760q0 -10 8 -19q102 25 303 0q12 23 6 25q-45 14 -159 12 q-119 -2 -158 -18zM260 879q0 -37 26.5 -62.5t63.5 -25.5t63.5 25.5t26.5 62.5t-26.5 63.5t-63.5 26.5t-63.5 -27t-26.5 -63zM289 881q0 61 61 61q62 0 62 -61t-62 -62q-61 0 -61 62zM324 879q0 -25 26 -25q27 0 27 25q0 27 -27 26q-27 0 -26 -26zM451 793q-5 -1 110 -9v84 h-82q0 -27 -28 -75zM451 965q33 -47 32 -70h76v70h-108z" />
<glyph unicode="&#x2013;" horiz-adv-x="1247" d="M91 985q-9 47 8 59q178 -14 403 -14q228 0 277 17q219 -150 327 -232q3 -12 3 -24q0 -47 -72 -111q31 -55 75 -170q0 -2 -4.5 -3t-4.5 -3q-166 33 -333 33q-181 0 -323 -39q-9 2 -33 0q-105 82 -306 252q-6 8 -6 18q0 14 16.5 40t19.5 38q-17 18 -17 47v20q3 14 3 21 q0 33 -33 51zM158 784h184q-59 53 -59 84h-107q-3 -27 -18 -84zM161 965q17 -55 15 -72h101q0 35 33 72h-149zM210 997q-5 -10 3.5 -15t247.5 -5q245 -2 256 4q18 12 -5 27q-145 -16 -484 2q-15 -2 -18 -13zM260 760q0 -10 12 -19q145 25 431 0q17 23 9 25q-64 14 -227 12 q-169 -2 -225 -18zM333 879q0 -37 37.5 -62.5t90.5 -25.5t90.5 25.5t37.5 62.5t-37.5 63.5t-90.5 26.5t-90.5 -27t-37.5 -63zM374 881q0 61 87 61q88 0 88 -61t-88 -62q-87 0 -87 62zM424 879q0 -25 37 -25q39 0 39 25q0 27 -39 26q-38 0 -37 -26zM605 793q-7 -1 157 -9v84 h-117q0 -27 -40 -75zM605 965q47 -47 46 -70h108v70h-154z" />
<glyph unicode="&#x2014;" horiz-adv-x="2271" d="M94 985q-17 47 17 59q356 -14 806 -14q456 0 552 17q439 -150 656 -232q5 -12 5 -24q0 -47 -145 -111q63 -55 151 -170q0 -2 -8.5 -3t-8.5 -3q-333 33 -667 33q-361 0 -646 -39q-17 2 -66 0q-210 82 -612 252q-12 8 -12 18q0 14 33 40t39 38q-34 18 -34 47v20q5 14 5 21 q0 33 -65 51zM228 784h367q-117 53 -117 84h-213q-6 -27 -37 -84zM233 965q34 -55 32 -72h202q0 35 65 72h-299zM333 997q-11 -10 6 -15t495 -5q490 -2 513 4q34 12 -11 27q-291 -16 -969 2q-28 -2 -34 -13zM433 760q0 -10 22 -19q291 25 864 0q34 23 17 25q-129 14 -453 12 q-339 -2 -450 -18zM578 879q0 -37 75.5 -62.5t180.5 -25.5q106 0 181.5 25.5t75.5 62.5t-75.5 63.5t-181.5 26.5q-105 0 -180.5 -27t-75.5 -63zM661 881q0 61 173 61q177 0 177 -61t-177 -62q-173 0 -173 62zM760 879q0 -25 74 -25q77 0 77 25q0 27 -77 26q-77 0 -74 -26z M1122 793q-14 -1 313 -9v84h-233q0 -27 -80 -75zM1122 965q94 -47 91 -70h217v70h-308z" />
<glyph unicode="&#x2018;" horiz-adv-x="593" d="M8 1034q4 131 2 363q102 78 309 229q12 0 29 -8q57 -52 170 -156q-29 -72 -86 -137q2 -29 37 -55q39 -33 47 -53q2 -119 -2 -353q-72 -4 -203 -4q-129 2 -139 6q-55 53 -164 168zM193 901q0 -10 12 -20h127q86 0 127 -2q10 2 24 8q4 100 6 198q4 125 -6 127t-82 5 q-53 0 -69 18q8 12 88 125v18q-127 -80 -225 -164q2 -102 -2 -313zM219 918v262q4 35 86 82q6 -12 -4 -40t-10 -32q0 -10 12 -10q59 2 150 -2q0 -86 4 -258q-61 -6 -238 -2zM276 1036l64 -90l68 105q-20 39 -66 114z" />
<glyph unicode="&#x2019;" horiz-adv-x="593" d="M27 1036q29 72 86 138q-2 29 -35 55q-41 33 -49 53q0 119 2 352q72 4 202 4q129 -2 140 -6q55 -53 164 -168q14 -123 -2 -362q-111 -78 -322 -240q-59 59 -186 174zM55 1413q-4 -125 6.5 -127t81.5 -4q53 0 70 -18q-8 -12 -88 -125v-19q127 80 225 164q-2 102 2 313 q0 10 -12 21q-41 2 -127 2h-127q-8 0 -25 -8q-4 -100 -6 -199zM88 1579q61 6 238 2v-262q-4 -35 -86 -82q-6 12 4 40t10 32q0 10 -12 10q-59 0 -150 2q2 86 -4 258zM137 1448q23 -39 66 -115l65 129l-63 90z" />
<glyph unicode="&#x201c;" horiz-adv-x="1126" d="M-6 1059l2 356q111 80 321 240q62 -57 187 -174q-12 -29 -86 -146l84 -100q0 -295 -2 -352q-72 -4 -203 -4q-129 2 -139 6q-96 98 -164 174zM39 1079q0 -10 12 -20h127q86 0 127 -2q11 2 25 8q4 100 6 199q4 125 -6.5 127t-81.5 4q-53 0 -70 18q8 12 88 125v18 q-127 -80 -225 -163q2 -102 -2 -314zM66 1096v262q4 35 86 82q6 -12 -4.5 -40t-10.5 -32q0 -10 13 -10q59 2 149 -2q0 -86 4 -258q-61 -6 -237 -2zM123 1214l63 -90l68 105q-20 39 -66 114zM547 1059l2 356q109 80 317 242q64 -59 191 -176q-12 -29 -86 -142l84 -104 q2 -119 -2 -352q-72 -4 -203 -4q-129 2 -139 6q-96 98 -164 174zM592 1079q0 -10 12 -20h127q86 0 127 -2q11 2 25 8q4 100 6 199q4 125 -6.5 127t-81.5 4q-53 0 -70 18q8 12 88 125v18q-127 -80 -225 -163q2 -102 -2 -314zM618 1096v262q4 35 87 82q6 -12 -4.5 -40 t-10.5 -32q0 -10 12 -10q59 2 150 -2q0 -86 4 -258q-61 -6 -238 -2zM676 1214l63 -90l68 105q-20 39 -66 114z" />
<glyph unicode="&#x201d;" horiz-adv-x="1126" d="M27 1036q29 72 86 138q-2 29 -35 55q-41 33 -49 53q0 119 2 352q72 4 202 4q129 -2 140 -6q98 -96 164 -174l-2 -356q-109 -78 -320 -238q-61 57 -188 172zM55 1413q-4 -125 6.5 -127t81.5 -4q53 0 70 -18q-8 -12 -88 -125v-19q127 80 225 164q-2 102 2 313q0 10 -12 21 q-41 2 -127 2h-127q-8 0 -25 -8q-4 -100 -6 -199zM88 1579q61 6 238 2v-262q-4 -35 -86 -82q-6 12 4 40t10 32q0 10 -12 10q-59 0 -150 2q2 86 -4 258zM137 1448q23 -39 66 -115l65 129l-63 90zM580 1036q29 72 86 138q-2 29 -35 55q-41 33 -49 53q0 119 2 352q72 4 202 4 q129 -2 140 -6q98 -96 164 -174l-3 -356q-111 -78 -321 -238q-59 57 -186 172zM608 1413q-4 -125 6.5 -127t81.5 -4q53 0 70 -18q-8 -12 -88 -125v-19q127 80 225 164q-2 102 2 313q0 10 -12 21q-41 2 -127 2h-127q-8 0 -25 -8q-4 -100 -6 -199zM641 1579q61 6 238 2v-262 q-4 -35 -86 -82q-6 12 4 40t10 32q0 10 -12 10q-59 0 -150 2q2 86 -4 258zM690 1448q23 -39 66 -115l65 129l-63 90z" />
<glyph unicode="&#x2022;" horiz-adv-x="921" d="M135 887q0 129 92 220t222 91q129 0 220 -91t91 -220q0 -127 -91 -220.5t-220 -93.5t-221.5 93.5t-92.5 220.5z" />
<glyph unicode="&#x202f;" horiz-adv-x="331" />
<glyph unicode="&#x205f;" horiz-adv-x="414" />
<glyph unicode="&#x25fc;" horiz-adv-x="1638" d="M0 0v1638h1638v-1638h-1638z" />
</font>
</defs>
</svg>
